<svg width="212" height="150" viewBox="0 0 212 150" fill="none" xmlns="http://www.w3.org/2000/svg">
<g clip-path="url(#clip0_528:19)">
<path fill-rule="evenodd" clip-rule="evenodd" d="M7.2 68.25H10.53C11.9491 68.7971 13.5209 68.7971 14.94 68.25H18.27C19.2933 68.2521 20.3044 68.4727 21.2356 68.8969C22.1669 69.3212 22.9968 69.9393 23.67 70.71C22.1515 71.4989 20.878 72.6887 19.9878 74.1501C19.0976 75.6115 18.6245 77.2888 18.62 79V92.2C18.6084 94.3907 19.3697 96.5152 20.77 98.2L20 112.93C19.84 115.99 17.58 118.7 14.56 118.7H13.33V97.41C13.33 97.2509 13.2668 97.0983 13.1543 96.9857C13.0417 96.8732 12.8891 96.81 12.73 96.81V96.81C12.5726 96.8126 12.4226 96.877 12.3122 96.9892C12.2018 97.1015 12.14 97.2526 12.14 97.41V118.7H10.91C7.91 118.7 5.62 116 5.46 112.93L4.46 94.27C3.14338 93.7282 2.01695 92.8082 1.2231 91.6263C0.429246 90.4444 0.00361226 89.0537 0 87.63V75.43C0.00263759 73.5283 0.758576 71.7051 2.10235 70.3594C3.44613 69.0138 5.26829 68.2553 7.17 68.25H7.2Z" fill="#5BAFFB"/>
<path fill-rule="evenodd" clip-rule="evenodd" d="M12.7297 56.9199C13.8377 56.918 14.9213 57.2447 15.8436 57.8588C16.7658 58.473 17.4851 59.3469 17.9105 60.37C18.3359 61.3931 18.4482 62.5193 18.2333 63.6063C18.0183 64.6932 17.4858 65.692 16.703 66.4762C15.9202 67.2604 14.9224 67.7947 13.8358 68.0116C12.7493 68.2285 11.6228 68.1182 10.5989 67.6946C9.5751 67.271 8.69991 66.5533 8.08413 65.6322C7.46835 64.711 7.13966 63.6279 7.13966 62.5199C7.13834 61.785 7.28196 61.057 7.5623 60.3777C7.84263 59.6983 8.25418 59.0809 8.77339 58.5607C9.2926 58.0406 9.90928 57.628 10.5881 57.3464C11.267 57.0649 11.9947 56.9199 12.7297 56.9199V56.9199Z" fill="#5BAFFB"/>
<path fill-rule="evenodd" clip-rule="evenodd" d="M27.9999 71.2502H31.5999C33.1357 71.8372 34.8341 71.8372 36.3699 71.2502H39.9699C41.0247 71.2486 42.0685 71.4634 43.0369 71.8814C44.0053 72.2993 44.8776 72.9116 45.5999 73.6802C43.8395 74.4814 42.3465 75.7718 41.2987 77.3976C40.2509 79.0233 39.6925 80.916 39.6899 82.8502V97.0602C39.6966 98.386 39.9651 99.6975 40.4799 100.919C40.9947 102.141 41.7458 103.249 42.6899 104.18L41.8899 119.59C41.7199 122.89 39.2699 125.82 36.0099 125.82H34.5999V102.82C34.5999 102.648 34.5314 102.482 34.4095 102.361C34.2876 102.239 34.1223 102.17 33.9499 102.17C33.7793 102.173 33.6165 102.242 33.4968 102.364C33.377 102.486 33.3099 102.649 33.3099 102.82V125.82H31.9999C28.7299 125.82 26.2799 122.9 26.1099 119.59L24.9999 99.3902C23.5744 98.806 22.3545 97.8119 21.4946 96.5336C20.6347 95.2554 20.1737 93.7507 20.1699 92.2102V79.0002C20.1738 77.9768 20.3796 76.9642 20.7755 76.0205C21.1714 75.0768 21.7495 74.2205 22.4769 73.5005C23.2042 72.7806 24.0665 72.2113 25.0142 71.8251C25.962 71.439 26.9766 71.2436 27.9999 71.2502Z" fill="#5BAFFB"/>
<path fill-rule="evenodd" clip-rule="evenodd" d="M33.9997 59.0001C35.1991 59.0081 36.3691 59.3718 37.3616 60.0452C38.3542 60.7185 39.1246 61.6713 39.5753 62.7827C40.026 63.8942 40.1367 65.1145 39.8935 66.2889C39.6503 67.4634 39.064 68.5393 38.2089 69.3803C37.3538 70.2214 36.2684 70.7898 35.0901 71.0136C33.9118 71.2374 32.6935 71.1065 31.5897 70.6374C30.4858 70.1684 29.5459 69.3824 28.889 68.3789C28.2322 67.3753 27.8879 66.1995 27.8997 65.0001C27.9156 63.3964 28.5665 61.8643 29.7099 60.7397C30.8533 59.615 32.3959 58.9895 33.9997 59.0001V59.0001Z" fill="#5BAFFB"/>
<path fill-rule="evenodd" clip-rule="evenodd" d="M49.7204 74.4902H53.6003C55.2598 75.1168 57.0909 75.1168 58.7504 74.4902H62.6204C64.5349 74.4896 66.3917 75.1462 67.8803 76.3502C66.1414 77.2924 64.6886 78.6859 63.675 80.3841C62.6613 82.0824 62.1243 84.0225 62.1204 86.0002V101.4C62.1225 102.885 62.4268 104.354 63.0147 105.717C63.6027 107.08 64.462 108.31 65.5404 109.33L64.6504 126.55C64.4704 130.12 61.8304 133.27 58.3204 133.27H56.8704V108.46C56.8704 108.369 56.8522 108.278 56.8169 108.194C56.7816 108.109 56.7299 108.033 56.6647 107.969C56.5996 107.905 56.5223 107.854 56.4375 107.82C56.3526 107.786 56.2618 107.769 56.1703 107.77V107.77C55.9873 107.77 55.8118 107.843 55.6824 107.972C55.553 108.102 55.4804 108.277 55.4804 108.46V133.27H54.0504C50.5304 133.27 47.8803 130.12 47.7003 126.55L46.5704 104.8C45.0325 104.172 43.7162 103.101 42.7886 101.722C41.8609 100.344 41.3638 98.7215 41.3604 97.0602V82.8502C41.3683 80.6355 42.2516 78.5136 43.8177 76.9476C45.3838 75.3815 47.5056 74.4981 49.7204 74.4902V74.4902Z" fill="#5BAFFB"/>
<path fill-rule="evenodd" clip-rule="evenodd" d="M56.1704 61.2798C57.4628 61.2778 58.7266 61.6594 59.802 62.3761C60.8774 63.0929 61.7159 64.1126 62.2114 65.3063C62.7069 66.4999 62.837 67.8136 62.5854 69.0813C62.3338 70.3489 61.7116 71.5134 60.7978 72.4272C59.884 73.341 58.7195 73.9632 57.4519 74.2148C56.1843 74.4664 54.8705 74.3363 53.6768 73.8408C52.4832 73.3453 51.4635 72.5068 50.7467 71.4314C50.03 70.356 49.6484 69.0922 49.6504 67.7998C49.6504 66.0706 50.3373 64.4122 51.5601 63.1895C52.7828 61.9667 54.4412 61.2798 56.1704 61.2798Z" fill="#5BAFFB"/>
<path fill-rule="evenodd" clip-rule="evenodd" d="M73 76.9H77.21C79.0088 77.5934 81.0012 77.5934 82.8 76.9H87.01C88.3087 76.8954 89.5933 77.1698 90.7768 77.7046C91.9603 78.2395 93.0152 79.0222 93.87 80C91.7706 80.9199 89.9843 82.4309 88.7289 84.3486C87.4735 86.2663 86.8033 88.5079 86.8 90.8V107.43C86.8012 110.507 88.0073 113.461 90.16 115.66L89.24 133.41C89.04 137.27 86.18 140.7 82.37 140.7H80.8V113.77C80.7974 113.572 80.7176 113.383 80.5775 113.242C80.4374 113.102 80.2481 113.023 80.05 113.02V113.02C79.8502 113.02 79.6584 113.099 79.5161 113.239C79.3739 113.379 79.2926 113.57 79.29 113.77V140.7H77.74C73.92 140.7 71.05 137.28 70.85 133.41L69.62 109.8C67.9595 109.11 66.54 107.944 65.54 106.45C64.5401 104.955 64.0043 103.198 64 101.4V86C63.9973 83.6029 64.9414 81.3018 66.627 79.5975C68.3126 77.8932 70.6031 76.9237 73 76.9Z" fill="#5BAFFB"/>
<path fill-rule="evenodd" clip-rule="evenodd" d="M80.05 62.5602C81.454 62.5523 82.8286 62.9613 83.9998 63.7356C85.171 64.5098 86.086 65.6143 86.6288 66.9091C87.1715 68.2039 87.3176 69.6307 87.0486 71.0087C86.7796 72.3866 86.1075 73.6537 85.1176 74.6492C84.1276 75.6448 82.8644 76.324 81.488 76.6009C80.1116 76.8777 78.684 76.7396 77.3861 76.2042C76.0882 75.6688 74.9786 74.7601 74.1977 73.5933C73.4169 72.4265 73 71.0541 73 69.6502C72.9987 68.7187 73.1812 67.7962 73.537 66.9354C73.8929 66.0746 74.4151 65.2925 75.0737 64.6338C75.7323 63.9752 76.5144 63.453 77.3752 63.0972C78.236 62.7413 79.1586 62.5589 80.09 62.5602H80.05Z" fill="#5BAFFB"/>
<path fill-rule="evenodd" clip-rule="evenodd" d="M204.87 68.25H201.55C200.128 68.7968 198.553 68.7968 197.13 68.25H193.8C192.778 68.2516 191.768 68.472 190.839 68.8963C189.909 69.3206 189.081 69.9391 188.41 70.71C189.92 71.5073 191.184 72.7017 192.065 74.1644C192.946 75.627 193.411 77.3025 193.41 79.01V92.21C193.422 94.4007 192.66 96.5252 191.26 98.21L192.03 112.98C192.18 116.04 194.45 118.75 197.46 118.75H198.7V97.41C198.7 97.2509 198.763 97.0983 198.876 96.9857C198.988 96.8732 199.141 96.81 199.3 96.81V96.81C199.459 96.81 199.612 96.8732 199.724 96.9857C199.837 97.0983 199.9 97.2509 199.9 97.41V118.7H201.12C204.12 118.7 206.41 116 206.57 112.93L207.57 94.27C208.888 93.7286 210.016 92.809 210.811 91.6273C211.607 90.4455 212.034 89.0546 212.04 87.63V75.43C212.035 73.5274 211.277 71.7042 209.931 70.3588C208.586 69.0134 206.763 68.2553 204.86 68.25H204.87Z" fill="#5BAFFB"/>
<path fill-rule="evenodd" clip-rule="evenodd" d="M199.34 56.9199C198.233 56.9199 197.15 57.2484 196.229 57.8637C195.308 58.479 194.59 59.3536 194.167 60.3769C193.743 61.4002 193.632 62.5261 193.848 63.6124C194.064 64.6987 194.597 65.6965 195.38 66.4797C196.164 67.2629 197.161 67.7962 198.248 68.0123C199.334 68.2284 200.46 68.1175 201.483 67.6936C202.507 67.2698 203.381 66.552 203.996 65.6311C204.612 64.7102 204.94 63.6275 204.94 62.5199C204.94 61.0347 204.35 59.6103 203.3 58.5601C202.25 57.5099 200.825 56.9199 199.34 56.9199V56.9199Z" fill="#5BAFFB"/>
<path fill-rule="evenodd" clip-rule="evenodd" d="M184.11 71.2502H180.51C178.971 71.837 177.269 71.837 175.73 71.2502H172.13C171.075 71.2498 170.032 71.4652 169.064 71.8831C168.096 72.301 167.223 72.9126 166.5 73.6802C168.262 74.4811 169.756 75.771 170.805 77.3967C171.855 79.0223 172.415 80.9152 172.42 82.8502V97.0602C172.417 98.3867 172.15 99.6993 171.635 100.922C171.12 102.144 170.367 103.252 169.42 104.18L170.22 119.59C170.39 122.89 172.84 125.82 176.1 125.82H177.44V102.82C177.44 102.735 177.457 102.65 177.489 102.571C177.522 102.493 177.57 102.421 177.63 102.361C177.691 102.3 177.762 102.252 177.841 102.22C177.92 102.187 178.005 102.17 178.09 102.17V102.17C178.261 102.173 178.423 102.243 178.543 102.364C178.663 102.486 178.73 102.65 178.73 102.82V125.82H180.06C183.33 125.82 185.79 122.9 185.96 119.59L186.96 99.3902C188.387 98.8065 189.608 97.8128 190.469 96.5347C191.331 95.2566 191.794 93.7516 191.8 92.2102V79.0002C191.795 76.9438 190.975 74.9731 189.521 73.5189C188.067 72.0648 186.096 71.2455 184.04 71.2402L184.11 71.2502Z" fill="#5BAFFB"/>
<path fill-rule="evenodd" clip-rule="evenodd" d="M178.12 59C176.919 59.0001 175.745 59.357 174.747 60.0256C173.75 60.6942 172.973 61.6442 172.516 62.755C172.059 63.8658 171.943 65.0874 172.181 66.2645C172.42 67.4416 173.003 68.5213 173.857 69.3663C174.71 70.2114 175.796 70.7838 176.975 71.0108C178.155 71.2378 179.375 71.1092 180.481 70.6413C181.587 70.1734 182.53 69.3874 183.188 68.3829C183.847 67.3785 184.192 66.201 184.18 65C184.164 63.4032 183.519 61.8772 182.384 60.7537C181.249 59.6301 179.717 58.9999 178.12 59V59Z" fill="#5BAFFB"/>
<path fill-rule="evenodd" clip-rule="evenodd" d="M162.35 74.4902H158.47C156.814 75.117 154.986 75.117 153.33 74.4902H149.45C147.538 74.4879 145.684 75.1448 144.2 76.3502C145.947 77.2871 147.407 78.6783 148.428 80.377C149.449 82.0756 149.992 84.0184 150 86.0002V101.4C150 102.885 149.697 104.355 149.109 105.718C148.521 107.082 147.66 108.311 146.58 109.33L147.47 126.55C147.66 130.12 150.3 133.27 153.81 133.27H155.25V108.46C155.253 108.276 155.328 108.101 155.459 107.972C155.59 107.843 155.766 107.77 155.95 107.77V107.77C156.134 107.77 156.311 107.843 156.442 107.972C156.573 108.101 156.648 108.276 156.65 108.46V133.27H158C161.52 133.27 164.16 130.12 164.35 126.55L165.47 104.8C167.008 104.172 168.324 103.101 169.252 101.722C170.18 100.344 170.677 98.7215 170.68 97.0602V82.8502C170.675 80.6347 169.792 78.5113 168.226 76.9447C166.659 75.378 164.536 74.4955 162.32 74.4902H162.35Z" fill="#5BAFFB"/>
<path fill-rule="evenodd" clip-rule="evenodd" d="M155.9 61.2798C154.608 61.2798 153.345 61.663 152.271 62.381C151.197 63.099 150.36 64.1194 149.866 65.3132C149.372 66.507 149.244 67.8204 149.496 69.0874C149.749 70.3544 150.372 71.5179 151.286 72.4307C152.2 73.3436 153.365 73.9647 154.632 74.2155C155.9 74.4664 157.213 74.3356 158.406 73.8399C159.599 73.3441 160.618 72.5056 161.334 71.4304C162.051 70.3552 162.432 69.0917 162.43 67.7998C162.43 66.9427 162.261 66.0941 161.933 65.3024C161.605 64.5107 161.123 63.7915 160.517 63.1859C159.91 62.5803 159.19 62.1003 158.398 61.7732C157.606 61.4462 156.757 61.2785 155.9 61.2798Z" fill="#5BAFFB"/>
<path fill-rule="evenodd" clip-rule="evenodd" d="M139 76.8999H134.79C133.899 77.2411 132.954 77.4173 132 77.4199C131.046 77.4193 130.1 77.2431 129.21 76.8999H125C123.72 76.9103 122.456 77.192 121.293 77.7264C120.129 78.2607 119.092 79.0356 118.25 79.9999C120.375 80.9071 122.188 82.4173 123.464 84.344C124.741 86.2706 125.424 88.529 125.43 90.8399V107.47C125.427 109.028 125.115 110.57 124.513 112.006C123.91 113.443 123.029 114.746 121.92 115.84L122.83 133.45C123.03 137.31 125.89 140.74 129.7 140.74H131.27V113.77C131.267 113.572 131.342 113.38 131.478 113.236C131.615 113.093 131.802 113.008 132 113C132.198 113.002 132.387 113.082 132.527 113.222C132.668 113.363 132.747 113.552 132.75 113.75V140.7H134.31C138.13 140.7 141 137.28 141.2 133.41L142.42 109.8C144.088 109.117 145.515 107.954 146.521 106.458C147.527 104.963 148.066 103.202 148.07 101.4V85.9999C148.073 83.5908 147.119 81.2792 145.418 79.5729C143.718 77.8666 141.409 76.9052 139 76.8999V76.8999Z" fill="#5BAFFB"/>
<path fill-rule="evenodd" clip-rule="evenodd" d="M132 62.5601C130.598 62.5581 129.226 62.9722 128.059 63.7501C126.891 64.5279 125.981 65.6346 125.443 66.9299C124.905 68.2253 124.763 69.6511 125.035 71.0271C125.308 72.4031 125.982 73.6674 126.973 74.6599C127.965 75.6525 129.228 76.3287 130.604 76.6031C131.979 76.8775 133.405 76.7376 134.701 76.2013C135.997 75.665 137.105 74.7563 137.885 73.5901C138.664 72.4239 139.08 71.0528 139.08 69.6501C139.082 68.7195 138.9 67.7977 138.544 66.9376C138.189 66.0775 137.668 65.2958 137.01 64.6373C136.353 63.9788 135.572 63.4564 134.712 63.1C133.852 62.7435 132.931 62.5601 132 62.5601Z" fill="#5BAFFB"/>
<path fill-rule="evenodd" clip-rule="evenodd" d="M98.5698 81H103.1C105.031 81.7415 107.168 81.7415 109.1 81H113.64C116.229 81.0105 118.71 82.0446 120.54 83.8767C122.37 85.7089 123.402 88.1903 123.41 90.78V107.41C123.396 109.344 122.81 111.23 121.726 112.831C120.643 114.433 119.11 115.678 117.32 116.41L116 141.92C115.78 146.08 112.7 149.77 108.59 149.77H106.9V120.77C106.897 120.554 106.81 120.348 106.656 120.197C106.503 120.045 106.296 119.96 106.08 119.96V119.96C105.865 119.96 105.659 120.045 105.507 120.197C105.355 120.349 105.27 120.555 105.27 120.77V149.77H103.6C99.4798 149.77 96.3898 146.09 96.1698 141.92L94.8498 116.48C93.0615 115.746 91.5297 114.5 90.4464 112.899C89.3631 111.298 88.7763 109.413 88.7598 107.48V90.8C88.7624 88.2 89.7971 85.7073 91.6366 83.8697C93.476 82.0322 95.9697 81 98.5698 81V81Z" fill="#5BAFFB"/>
<path fill-rule="evenodd" clip-rule="evenodd" d="M106.11 65.5801C107.62 65.5801 109.095 66.0276 110.349 66.866C111.604 67.7044 112.582 68.896 113.16 70.2902C113.737 71.6844 113.888 73.2185 113.594 74.6986C113.299 76.1787 112.573 77.5382 111.506 78.6053C110.439 79.6724 109.079 80.3991 107.599 80.6935C106.119 80.9879 104.585 80.8368 103.191 80.2593C101.796 79.6818 100.605 78.7038 99.7664 77.4491C98.928 76.1943 98.4805 74.7192 98.4805 73.2101C98.4792 72.2077 98.6756 71.215 99.0586 70.2886C99.4416 69.3623 100.004 68.5207 100.712 67.8119C101.421 67.1031 102.263 66.5412 103.189 66.1582C104.115 65.7752 105.108 65.5788 106.11 65.5801V65.5801Z" fill="#5BAFFB"/>
<path fill-rule="evenodd" clip-rule="evenodd" d="M173.43 46.3101H177C178.505 46.8969 180.175 46.8969 181.68 46.3101H185.22C187.238 46.318 189.17 47.1237 190.596 48.5513C192.022 49.9789 192.825 51.9125 192.83 53.9301V59.1801C192.304 60.2131 192.03 61.3558 192.03 62.5151C192.03 63.6743 192.304 64.817 192.83 65.8501V66.5701C190.623 66.8252 188.59 67.895 187.13 69.5701L186.84 69.9001C186.089 69.6766 185.313 69.5489 184.53 69.5201C185.352 68.3518 185.837 66.9803 185.933 65.5552C186.028 64.13 185.731 62.706 185.073 61.4384C184.414 60.1708 183.421 59.1082 182.2 58.3666C180.979 57.625 179.578 57.2328 178.15 57.2328C176.722 57.2328 175.321 57.625 174.1 58.3666C172.879 59.1082 171.886 60.1708 171.228 61.4384C170.569 62.706 170.272 64.13 170.368 65.5552C170.463 66.9803 170.948 68.3518 171.77 69.5201C170.077 69.5796 168.43 70.0906 167 71.0001C166.206 69.773 165.786 68.3416 165.79 66.8801V53.9301C165.795 51.9125 166.598 49.9789 168.024 48.5513C169.45 47.1237 171.382 46.318 173.4 46.3101H173.43Z" fill="#5BAFFB"/>
<path fill-rule="evenodd" clip-rule="evenodd" d="M179.31 34.2798C180.488 34.2798 181.638 34.629 182.617 35.2832C183.596 35.9375 184.358 36.8673 184.808 37.9551C185.258 39.0429 185.376 40.2398 185.145 41.3943C184.915 42.5487 184.347 43.6089 183.514 44.4406C182.681 45.2723 181.62 45.8382 180.465 46.0667C179.31 46.2951 178.113 46.1759 177.026 45.724C175.939 45.2721 175.011 44.5079 174.358 43.5281C173.706 42.5484 173.358 41.397 173.36 40.2198C173.363 38.6435 173.991 37.1326 175.107 36.019C176.222 34.9053 177.734 34.2798 179.31 34.2798V34.2798Z" fill="#5BAFFB"/>
<path fill-rule="evenodd" clip-rule="evenodd" d="M16.4504 45H19.7104C21.0941 45.5149 22.6168 45.5149 24.0004 45H27.2504C29.1069 45 30.8874 45.7375 32.2002 47.0503C33.5129 48.363 34.2504 50.1435 34.2504 52V57.27H34.0004C32.5749 57.2722 31.1773 57.665 29.9594 58.4058C28.7414 59.1465 27.7498 60.2069 27.0922 61.4716C26.4345 62.7364 26.1361 64.1571 26.2292 65.5796C26.3223 67.0021 26.8035 68.3718 27.6204 69.54C26.8375 69.5689 26.0614 69.6965 25.3104 69.92L25.0004 69.57C23.4428 67.804 21.25 66.7256 18.9004 66.57C19.7874 65.2173 20.2026 63.6095 20.0817 61.9965C19.9607 60.3835 19.3104 58.8556 18.2316 57.6503C17.1529 56.445 15.7062 55.6298 14.1164 55.3313C12.5267 55.0329 10.8828 55.268 9.44043 56V52C9.44043 50.1435 10.1779 48.363 11.4907 47.0503C12.8034 45.7375 14.5839 45 16.4404 45H16.4504Z" fill="#5BAFFB"/>
<path fill-rule="evenodd" clip-rule="evenodd" d="M21.8596 33.8901C22.9415 33.8901 23.9991 34.2109 24.8986 34.812C25.7982 35.4131 26.4993 36.2673 26.9133 37.2669C27.3273 38.2664 27.4356 39.3662 27.2245 40.4273C27.0135 41.4884 26.4925 42.463 25.7275 43.228C24.9625 43.993 23.9879 44.514 22.9268 44.725C21.8657 44.9361 20.7659 44.8278 19.7664 44.4138C18.7669 43.9997 17.9126 43.2986 17.3115 42.3991C16.7105 41.4996 16.3896 40.442 16.3896 39.3601C16.3896 37.9094 16.966 36.5181 17.9918 35.4923C19.0176 34.4664 20.4089 33.8901 21.8596 33.8901V33.8901Z" fill="#5BAFFB"/>
<path fill-rule="evenodd" clip-rule="evenodd" d="M90.4102 66.6802H94.7502C96.1108 67.1981 97.5859 67.3398 99.0202 67.0902C97.5596 68.7869 96.7563 70.9514 96.7563 73.1902C96.7563 75.429 97.5596 77.5935 99.0202 79.2902H98.6002C97.6768 79.2879 96.7566 79.3987 95.8602 79.6202L95.2102 78.8702C94.1979 77.708 92.9487 76.7757 91.5465 76.1358C90.1443 75.4959 88.6215 75.1633 87.0802 75.1602H86.9502C87.8685 74.0154 88.4867 72.6595 88.7486 71.2154C89.0106 69.7713 88.908 68.2847 88.4502 66.8902C89.1073 66.7484 89.7779 66.678 90.4502 66.6802H90.4102Z" fill="#5BAFFB"/>
<path fill-rule="evenodd" clip-rule="evenodd" d="M114.21 77.9199V79.2999H113.21C113.584 78.8743 113.919 78.4158 114.21 77.9299V77.9199Z" fill="#5BAFFB"/>
<path fill-rule="evenodd" clip-rule="evenodd" d="M93.9996 132.36C92.9508 132.143 91.9698 131.676 91.1396 131L91.8796 116.76C92.3085 117.075 92.7597 117.359 93.2297 117.61L93.9996 132.36V132.36Z" fill="#5BAFFB"/>
<path fill-rule="evenodd" clip-rule="evenodd" d="M97.6299 51.8902C99.0887 51.8971 100.512 52.3403 101.717 53.1628C102.922 53.9854 103.853 55.1496 104.391 56.5057C104.929 57.8619 105.048 59.3479 104.734 60.7726C104.421 62.1973 103.688 63.4955 102.63 64.5002C101.672 64.8864 100.783 65.4269 99.9999 66.1002C98.9946 66.4518 97.9247 66.5796 96.8649 66.4745C95.8052 66.3693 94.7812 66.034 93.8646 65.4917C92.948 64.9495 92.1609 64.2136 91.5585 63.3354C90.956 62.4572 90.5527 61.458 90.3768 60.4077C90.2009 59.3573 90.2566 58.2812 90.54 57.2547C90.8234 56.2281 91.3277 55.2759 92.0177 54.4646C92.7076 53.6533 93.5664 53.0026 94.5341 52.5579C95.5018 52.1132 96.5549 51.8853 97.6199 51.8902H97.6299Z" fill="#5BAFFB"/>
<path fill-rule="evenodd" clip-rule="evenodd" d="M126.56 62.7301H125.11C123.39 63.3834 121.49 63.3834 119.77 62.7301H115.77C113.736 62.7186 111.763 63.427 110.2 64.7301C111.625 65.4177 112.853 66.4535 113.77 67.7418C114.688 69.0301 115.266 70.5292 115.45 72.1001C115.913 73.3518 116.15 74.6757 116.15 76.0101V79.5201H116.29L116.98 78.7401C117.992 77.6149 119.228 76.7148 120.61 76.0981C121.991 75.4813 123.487 75.1618 125 75.1601H125.12C124.392 74.2533 123.851 73.2113 123.527 72.0942C123.204 70.977 123.105 69.807 123.236 68.6514C123.367 67.4959 123.726 66.3777 124.291 65.3614C124.856 64.3451 125.617 63.4508 126.53 62.7301H126.56Z" fill="#5BAFFB"/>
<path fill-rule="evenodd" clip-rule="evenodd" d="M118.71 123.61C119.2 123.735 119.704 123.799 120.21 123.8H120.59L120.23 116.87C119.841 117.14 119.437 117.387 119.02 117.61L118.71 123.61V123.61Z" fill="#5BAFFB"/>
<path fill-rule="evenodd" clip-rule="evenodd" d="M122.44 49C121.099 49 119.788 49.3979 118.672 50.1433C117.557 50.8888 116.688 51.9483 116.175 53.1877C115.662 54.4272 115.529 55.7909 115.791 57.1064C116.054 58.4219 116.7 59.6299 117.65 60.5777C118.599 61.5255 119.808 62.1705 121.124 62.431C122.439 62.6914 123.803 62.5557 125.042 62.041C126.28 61.5263 127.339 60.6558 128.082 59.5395C128.826 58.4232 129.222 57.1114 129.22 55.77C129.22 54.8801 129.045 53.999 128.704 53.1769C128.363 52.3549 127.863 51.6081 127.234 50.9794C126.604 50.3506 125.857 49.8521 125.034 49.5125C124.211 49.1728 123.33 48.9987 122.44 49V49Z" fill="#5BAFFB"/>
<path fill-rule="evenodd" clip-rule="evenodd" d="M106.42 44H102.7C101.115 44.5999 99.3655 44.5999 97.7803 44H94.0703C91.9486 44 89.9138 44.8429 88.4135 46.3431C86.9132 47.8434 86.0703 49.8783 86.0703 52V63.2C86.6784 63.7605 87.2006 64.4074 87.6203 65.12C88.4964 64.8966 89.3962 64.7791 90.3003 64.77C89.2925 63.4413 88.6643 61.864 88.4828 60.2062C88.3013 58.5484 88.5733 56.8725 89.2699 55.3572C89.9664 53.842 91.0613 52.5443 92.4376 51.6026C93.814 50.661 95.4203 50.1107 97.0849 50.0105C98.7496 49.9104 100.41 50.2641 101.89 51.0339C103.369 51.8037 104.611 52.9608 105.485 54.3816C106.358 55.8024 106.829 57.4336 106.848 59.1012C106.866 60.7687 106.432 62.4101 105.59 63.85H106.12C106.851 63.8507 107.579 63.9345 108.29 64.1C109.927 62.4067 112.086 61.3145 114.42 61V58.76C113.713 56.8397 113.713 54.7303 114.42 52.81V52C114.42 49.8783 113.577 47.8434 112.077 46.3431C110.577 44.8429 108.542 44 106.42 44Z" fill="#5BAFFB"/>
<path fill-rule="evenodd" clip-rule="evenodd" d="M100.24 31.3799C99.0041 31.3799 97.7957 31.7464 96.7679 32.4332C95.7401 33.12 94.939 34.0961 94.466 35.2381C93.9929 36.3801 93.8692 37.6368 94.1103 38.8492C94.3515 40.0616 94.9467 41.1752 95.8208 42.0493C96.6949 42.9234 97.8085 43.5186 99.0209 43.7598C100.233 44.0009 101.49 43.8772 102.632 43.4041C103.774 42.9311 104.75 42.13 105.437 41.1022C106.124 40.0744 106.49 38.866 106.49 37.6299C106.49 35.9723 105.832 34.3826 104.66 33.2105C103.488 32.0384 101.898 31.3799 100.24 31.3799V31.3799Z" fill="#5BAFFB"/>
<path fill-rule="evenodd" clip-rule="evenodd" d="M151.46 51.5898H147.75C146.168 52.203 144.413 52.203 142.83 51.5898H139.11C136.989 51.5898 134.954 52.4327 133.453 53.933C131.953 55.4333 131.11 57.4681 131.11 59.5898V60.8598C131.41 60.8598 131.72 60.8598 132.03 60.8598C133.589 60.8605 135.12 61.2742 136.467 62.0589C137.813 62.8436 138.928 63.9712 139.698 65.3268C140.467 66.6825 140.863 68.2178 140.846 69.7764C140.829 71.3351 140.399 72.8614 139.6 74.1998V75.1998C140.515 75.245 141.419 75.4097 142.29 75.6898L143.1 75.0298C144.846 73.6009 147.024 72.8044 149.28 72.7698C148.17 71.2899 147.588 69.4798 147.629 67.6299C147.67 65.78 148.331 63.9974 149.505 62.5679C150.68 61.1383 152.301 60.1446 154.108 59.746C155.915 59.3475 157.803 59.5671 159.47 60.3698V59.5998C159.47 57.4781 158.628 55.4433 157.127 53.943C155.627 52.4427 153.592 51.5998 151.47 51.5998L151.46 51.5898Z" fill="#5BAFFB"/>
<path fill-rule="evenodd" clip-rule="evenodd" d="M145.29 39C144.053 39 142.845 39.3668 141.817 40.054C140.789 40.7412 139.988 41.7179 139.515 42.8606C139.042 44.0032 138.919 45.2604 139.161 46.473C139.403 47.6857 139.999 48.7993 140.874 49.673C141.749 50.5466 142.864 51.1411 144.077 51.3811C145.29 51.6212 146.547 51.496 147.689 51.0214C148.831 50.5468 149.806 49.7442 150.492 48.715C151.177 47.6859 151.542 46.4766 151.54 45.24C151.54 44.4197 151.378 43.6075 151.064 42.8498C150.75 42.092 150.289 41.4037 149.709 40.8241C149.128 40.2446 148.439 39.7851 147.681 39.4721C146.923 39.1591 146.11 38.9987 145.29 39V39Z" fill="#5BAFFB"/>
<path fill-rule="evenodd" clip-rule="evenodd" d="M126.46 37.46H123C121.528 38.0196 119.902 38.0196 118.43 37.46H115C113.453 37.4746 111.948 37.9693 110.695 38.8757C109.441 39.7821 108.499 41.0555 108 42.52C109.96 42.8413 111.774 43.7585 113.195 45.1469C114.615 46.5354 115.574 48.3276 115.94 50.28C117.003 49.0193 118.407 48.0928 119.984 47.6119C121.561 47.1311 123.243 47.1165 124.829 47.5698C126.414 48.0232 127.834 48.9252 128.918 50.1672C130.003 51.4091 130.705 52.9381 130.94 54.57C131.701 53.3407 132.726 52.2956 133.94 51.51V44.89C133.935 42.9228 133.152 41.0375 131.762 39.6455C130.371 38.2535 128.487 37.4679 126.52 37.46H126.46Z" fill="#5BAFFB"/>
<path fill-rule="evenodd" clip-rule="evenodd" d="M129.48 60.6401L129.25 60.9601H129.48V60.6401Z" fill="#5BAFFB"/>
<path fill-rule="evenodd" clip-rule="evenodd" d="M120.72 25.7202C119.573 25.7202 118.451 26.0604 117.498 26.6977C116.544 27.335 115.8 28.2408 115.361 29.3007C114.922 30.3605 114.808 31.5266 115.031 32.6517C115.255 33.7768 115.808 34.8103 116.619 35.6214C117.43 36.4326 118.463 36.985 119.588 37.2088C120.713 37.4326 121.88 37.3177 122.939 36.8787C123.999 36.4397 124.905 35.6963 125.542 34.7425C126.18 33.7887 126.52 32.6673 126.52 31.5202C126.52 29.982 125.909 28.5067 124.821 27.419C123.733 26.3313 122.258 25.7202 120.72 25.7202V25.7202Z" fill="#5BAFFB"/>
<path fill-rule="evenodd" clip-rule="evenodd" d="M163.47 37.46H160C158.528 38.0196 156.902 38.0196 155.43 37.46H152C150.914 37.4566 149.84 37.6994 148.86 38.17C149.896 38.691 150.804 39.4344 151.519 40.347C152.234 41.2597 152.738 42.319 152.996 43.4492C153.254 44.5795 153.259 45.7527 153.011 46.8852C152.763 48.0176 152.267 49.0812 151.56 50C154.098 50.0315 156.521 51.0604 158.307 52.8643C160.092 54.6682 161.095 57.1021 161.1 59.64V61.42C162.727 62.7242 163.799 64.5967 164.1 66.66V53.93C164.106 51.8927 164.774 49.9125 166.004 48.2888C167.235 46.665 168.96 45.486 170.92 44.93V44.93C170.915 42.9611 170.131 41.0743 168.738 39.682C167.346 38.2898 165.459 37.5053 163.49 37.5L163.47 37.46Z" fill="#5BAFFB"/>
<path fill-rule="evenodd" clip-rule="evenodd" d="M164.16 68.0898C164.102 69.7743 163.53 71.4008 162.52 72.7498C163.261 72.7613 163.999 72.8552 164.72 73.0298L165.24 72.4798C165.38 72.3398 165.51 72.1998 165.66 72.0698C164.858 70.8701 164.344 69.501 164.16 68.0698V68.0898Z" fill="#5BAFFB"/>
<path fill-rule="evenodd" clip-rule="evenodd" d="M157.73 25.7202C156.583 25.7202 155.461 26.0604 154.507 26.6977C153.554 27.335 152.81 28.2408 152.371 29.3007C151.932 30.3605 151.817 31.5266 152.041 32.6517C152.265 33.7768 152.817 34.8103 153.628 35.6214C154.44 36.4326 155.473 36.985 156.598 37.2088C157.723 37.4326 158.889 37.3177 159.949 36.8787C161.009 36.4397 161.915 35.6963 162.552 34.7425C163.19 33.7887 163.53 32.6673 163.53 31.5202C163.53 29.982 162.919 28.5067 161.831 27.419C160.743 26.3313 159.268 25.7202 157.73 25.7202V25.7202Z" fill="#5BAFFB"/>
<path fill-rule="evenodd" clip-rule="evenodd" d="M69.7601 53H73.7601C75.4802 53.6533 77.3801 53.6533 79.1001 53H83.1001C83.525 52.9997 83.9495 53.0298 84.3701 53.09V62C82.59 61.0207 80.5263 60.6859 78.5278 61.0524C76.5294 61.4189 74.7188 62.4641 73.4019 64.0113C72.0851 65.5586 71.3429 67.5131 71.3006 69.5444C71.2584 71.5757 71.9187 73.5593 73.1701 75.16H73.0001C71.8969 75.1603 70.8004 75.3324 69.7501 75.67L69.0001 75C67.2541 73.5711 65.0761 72.7746 62.8201 72.74C63.4737 71.869 63.9485 70.8772 64.2169 69.8218C64.4853 68.7664 64.5422 67.6684 64.3841 66.5909C64.2261 65.5135 63.8563 64.478 63.2961 63.5441C62.7359 62.6103 61.9963 61.7966 61.1201 61.15C61.2595 58.9496 62.2291 56.8841 63.833 55.3712C65.4368 53.8583 67.5553 53.0108 69.7601 53Z" fill="#5BAFFB"/>
<path fill-rule="evenodd" clip-rule="evenodd" d="M76.4597 39.24C77.8015 39.24 79.1132 39.6381 80.2286 40.384C81.3439 41.1299 82.2129 42.19 82.7255 43.43C83.2381 44.6701 83.3712 46.0343 83.1079 47.3501C82.8447 48.6658 82.197 49.8738 81.2468 50.8212C80.2966 51.7686 79.0866 52.4128 77.7701 52.6721C76.4536 52.9315 75.0898 52.7944 73.8512 52.2781C72.6127 51.7619 71.5552 50.8898 70.8126 49.7722C70.07 48.6546 69.6758 47.3418 69.6797 46C69.6824 44.2035 70.3979 42.4816 71.6691 41.2123C72.9403 39.9429 74.6633 39.23 76.4597 39.23V39.24Z" fill="#5BAFFB"/>
<path fill-rule="evenodd" clip-rule="evenodd" d="M49.9997 39.9302H53.7197C54.5034 40.2371 55.338 40.3932 56.1797 40.3902C57.0212 40.3913 57.8555 40.2353 58.6397 39.9302H62.2997C63.4913 39.9369 64.6664 40.2097 65.7391 40.7288C66.8118 41.2478 67.7549 41.9999 68.4997 42.9302C68.1167 43.9087 67.9167 44.9493 67.9097 46.0002C67.9022 47.8715 68.514 49.6928 69.6497 51.1802C67.1482 51.21 64.7399 52.1337 62.86 53.7843C60.9802 55.4349 59.7528 57.7036 59.3997 60.1802C57.7271 59.4683 55.8664 59.328 54.1059 59.7811C52.3455 60.2342 50.7837 61.2554 49.6627 62.6863C48.5416 64.1173 47.9239 65.8781 47.9053 67.6958C47.8867 69.5135 48.4682 71.2866 49.5597 72.7402C48.8149 72.7513 48.0737 72.8452 47.3497 73.0202L47.1297 72.7902L46.9297 69.0002C45.4534 68.403 44.1889 67.3788 43.2982 66.0587C42.4074 64.7386 41.9309 63.1827 41.9297 61.5902V47.9302C41.9297 45.8084 42.7725 43.7736 44.2728 42.2733C45.7731 40.773 47.808 39.9302 49.9297 39.9302H49.9997Z" fill="#5BAFFB"/>
<path fill-rule="evenodd" clip-rule="evenodd" d="M56.1299 27.29C57.3664 27.29 58.5752 27.6569 59.6032 28.3441C60.6313 29.0313 61.4323 30.008 61.9051 31.1506C62.3778 32.2932 62.501 33.5504 62.2591 34.763C62.0171 35.9757 61.4208 37.0893 60.5458 37.963C59.6707 38.8367 58.5561 39.4311 57.3431 39.6712C56.13 39.9112 54.873 39.786 53.7312 39.3114C52.5893 38.8368 51.6139 38.0342 50.9283 37.0051C50.2428 35.976 49.8779 34.7666 49.8799 33.53C49.8799 32.7098 50.0416 31.8975 50.3558 31.1398C50.6701 30.3821 51.1306 29.6937 51.7111 29.1142C52.2916 28.5346 52.9807 28.0752 53.7389 27.7622C54.4971 27.4492 55.3096 27.2887 56.1299 27.29V27.29Z" fill="#5BAFFB"/>
<path fill-rule="evenodd" clip-rule="evenodd" d="M32.2797 35.5698H35.7197C37.1916 36.1294 38.8177 36.1294 40.2897 35.5698H43.7397C44.8415 35.5703 45.9294 35.8165 46.9241 36.2905C47.9188 36.7645 48.7953 37.4543 49.4897 38.3098C47.0205 38.4352 44.6933 39.5026 42.9874 41.2922C41.2815 43.0818 40.3267 45.4574 40.3197 47.9298V60.5298C39.2697 59.0695 37.7527 58.0112 36.0197 57.5298V51.9998C36.0163 49.7939 35.1817 47.6704 33.6823 46.0524C32.183 44.4344 30.1289 43.4409 27.9297 43.2698C28.6754 42.1096 29.0712 40.7591 29.0697 39.3798C29.0751 38.4321 28.888 37.4931 28.5197 36.6198C29.6597 35.9529 30.959 35.6074 32.2797 35.6198V35.5698Z" fill="#5BAFFB"/>
<path fill-rule="evenodd" clip-rule="evenodd" d="M41.6298 66.3899C42.5234 67.9053 43.8083 69.1523 45.3498 69.9999L45.4198 71.2399C43.9309 70.1813 42.1654 69.5801 40.3398 69.5099C40.9932 68.5733 41.4336 67.5049 41.6298 66.3799V66.3899Z" fill="#5BAFFB"/>
<path fill-rule="evenodd" clip-rule="evenodd" d="M38.0002 23.8301C39.1473 23.8301 40.2687 24.1702 41.2225 24.8076C42.1763 25.4449 42.9197 26.3507 43.3587 27.4105C43.7977 28.4703 43.9125 29.6365 43.6887 30.7616C43.465 31.8867 42.9126 32.9202 42.1014 33.7313C41.2903 34.5424 40.2568 35.0948 39.1317 35.3186C38.0066 35.5424 36.8404 35.4276 35.7806 34.9886C34.7208 34.5496 33.815 33.8062 33.1777 32.8524C32.5404 31.8986 32.2002 30.7772 32.2002 29.6301C32.2002 28.0918 32.8113 26.6166 33.899 25.5289C34.9867 24.4411 36.4619 23.8301 38.0002 23.8301V23.8301Z" fill="#5BAFFB"/>
<path fill-rule="evenodd" clip-rule="evenodd" d="M82.4803 31.1602H79.0003C77.5284 31.7198 75.9023 31.7198 74.4303 31.1602H71.0003C69.0671 31.1644 67.2113 31.92 65.8249 33.2672C64.4384 34.6145 63.63 36.4479 63.5703 38.3802C65.7548 38.6822 67.77 39.7233 69.2803 41.3302C70.5878 39.4736 72.5793 38.2126 74.8166 37.8244C77.0539 37.4362 79.3538 37.9526 81.2103 39.2602C83.0668 40.5677 84.3279 42.5591 84.7161 44.7964C85.1043 47.0338 84.5878 49.3336 83.2803 51.1902C83.6783 51.1916 84.0757 51.2183 84.4703 51.2702C84.6075 49.5876 85.1828 47.9704 86.1389 46.5792C87.0951 45.1879 88.3987 44.0713 89.9203 43.3402V38.5902C89.915 36.6212 89.1305 34.7344 87.7383 33.3422C86.346 31.9499 84.4592 31.1654 82.4903 31.1602H82.4803Z" fill="#5BAFFB"/>
<path fill-rule="evenodd" clip-rule="evenodd" d="M76.7502 19.4199C75.6031 19.4199 74.4817 19.7601 73.5279 20.3974C72.5741 21.0347 71.8307 21.9405 71.3917 23.0004C70.9527 24.0602 70.8378 25.2264 71.0616 26.3514C71.2854 27.4765 71.8378 28.51 72.649 29.3211C73.4601 30.1323 74.4936 30.6847 75.6187 30.9085C76.7438 31.1323 77.91 31.0174 78.9698 30.5784C80.0296 30.1394 80.9354 29.396 81.5727 28.4422C82.21 27.4884 82.5502 26.3671 82.5502 25.2199C82.5502 23.6817 81.9391 22.2064 80.8514 21.1187C79.7637 20.031 78.2885 19.4199 76.7502 19.4199V19.4199Z" fill="#5BAFFB"/>
<path fill-rule="evenodd" clip-rule="evenodd" d="M49.2696 22.0002H52.4596C53.8182 22.5205 55.3211 22.5205 56.6796 22.0002H59.8697C61.6901 22.0055 63.4344 22.731 64.7216 24.0182C66.0089 25.3054 66.7344 27.0498 66.7396 28.8702V30.7502C65.6815 31.3298 64.7499 32.1152 63.9996 33.0602C63.8564 31.0307 62.9338 29.1353 61.4249 27.7705C59.9159 26.4058 57.9376 25.6776 55.904 25.7384C53.8704 25.7991 51.939 26.644 50.5142 28.0963C49.0894 29.5487 48.2815 31.4958 48.2597 33.5302C48.2614 34.1665 48.3352 34.8005 48.4797 35.4202C47.0927 34.5442 45.49 34.0699 43.8496 34.0502C44.8454 32.7317 45.3664 31.1155 45.3283 29.4636C45.2902 27.8118 44.6951 26.2214 43.6396 24.9502C44.2683 24.0326 45.1095 23.2805 46.0916 22.7582C47.0736 22.2358 48.1674 21.9586 49.2796 21.9502L49.2696 22.0002Z" fill="#5BAFFB"/>
<path fill-rule="evenodd" clip-rule="evenodd" d="M54.57 11.1401C55.6301 11.1401 56.6664 11.4545 57.5478 12.0435C58.4293 12.6324 59.1163 13.4695 59.522 14.449C59.9276 15.4284 60.0338 16.5061 59.827 17.5458C59.6202 18.5856 59.1097 19.5406 58.3601 20.2902C57.6104 21.0398 56.6554 21.5503 55.6156 21.7571C54.5759 21.964 53.4982 21.8578 52.5188 21.4521C51.5394 21.0464 50.7022 20.3594 50.1133 19.478C49.5243 18.5965 49.21 17.5602 49.21 16.5001C49.21 15.0786 49.7747 13.7152 50.7799 12.71C51.7851 11.7048 53.1484 11.1401 54.57 11.1401V11.1401Z" fill="#5BAFFB"/>
<path fill-rule="evenodd" clip-rule="evenodd" d="M112.77 22.4702H116.1C117.522 23.017 119.097 23.017 120.52 22.4702H123.85C125.747 22.4834 127.563 23.245 128.902 24.5895C130.241 25.9341 130.995 27.7528 131 29.6502V37.2102C129.646 36.3959 128.099 35.9575 126.52 35.9402C127.346 34.855 127.852 33.5606 127.982 32.203C128.111 30.8454 127.859 29.4785 127.253 28.2566C126.648 27.0347 125.713 26.0062 124.554 25.2872C123.395 24.5682 122.059 24.1872 120.695 24.1872C119.331 24.1872 117.994 24.5682 116.835 25.2872C115.677 26.0062 114.742 27.0347 114.136 28.2566C113.53 29.4785 113.278 30.8454 113.408 32.203C113.538 33.5606 114.044 34.855 114.87 35.9402C113.516 35.9578 112.183 36.2807 110.971 36.885C109.759 37.4893 108.699 38.3593 107.87 39.4302C108.011 38.8407 108.081 38.2364 108.08 37.6302C108.089 36.6025 107.895 35.5831 107.51 34.6302V30.0002C107.517 28.6485 107.173 27.3182 106.51 26.1402C107.135 25.035 108.042 24.1151 109.138 23.474C110.234 22.8328 111.48 22.4934 112.75 22.4902L112.77 22.4702Z" fill="#5BAFFB"/>
<path fill-rule="evenodd" clip-rule="evenodd" d="M118.31 11.1299C119.418 11.1299 120.5 11.4583 121.421 12.0737C122.342 12.689 123.06 13.5636 123.484 14.5869C123.908 15.6101 124.018 16.7361 123.802 17.8224C123.586 18.9087 123.053 19.9065 122.27 20.6897C121.487 21.4729 120.489 22.0062 119.402 22.2223C118.316 22.4384 117.19 22.3275 116.167 21.9036C115.144 21.4798 114.269 20.762 113.654 19.8411C113.038 18.9202 112.71 17.8375 112.71 16.7299C112.71 15.2447 113.3 13.8203 114.35 12.7701C115.4 11.7199 116.825 11.1299 118.31 11.1299V11.1299Z" fill="#5BAFFB"/>
<path fill-rule="evenodd" clip-rule="evenodd" d="M147.25 21.6699H144.07C142.711 22.2034 141.2 22.2034 139.84 21.6699H136.65C135.522 21.6744 134.413 21.9558 133.419 22.4893C132.425 23.0229 131.577 23.7922 130.95 24.7299C131.962 26.1707 132.504 27.8893 132.5 29.6499V38.3099C133.414 39.145 134.144 40.1615 134.643 41.2944C135.143 42.4273 135.4 43.6518 135.4 44.8899V50.7099C136.543 50.2418 137.765 50.0006 139 49.9999C138.015 48.7149 137.45 47.1572 137.383 45.5395C137.316 43.9217 137.749 42.3225 138.624 40.96C139.499 39.5975 140.772 38.5379 142.271 37.9259C143.77 37.3138 145.422 37.1791 147 37.5399C148.452 36.5407 150.168 35.9975 151.93 35.9799C150.958 34.712 150.434 33.1575 150.44 31.5599C150.435 30.4046 150.705 29.2646 151.226 28.2337C151.748 27.2028 152.507 26.3104 153.44 25.6299C152.88 24.4597 152.001 23.4712 150.904 22.7778C149.808 22.0844 148.538 21.7143 147.24 21.7099L147.25 21.6699Z" fill="#5BAFFB"/>
<path fill-rule="evenodd" clip-rule="evenodd" d="M142 10.8198C140.94 10.8198 139.903 11.1342 139.022 11.7231C138.14 12.3121 137.453 13.1492 137.048 14.1286C136.642 15.1081 136.536 16.1858 136.743 17.2255C136.949 18.2652 137.46 19.2203 138.21 19.9699C138.959 20.7195 139.914 21.23 140.954 21.4368C141.994 21.6437 143.071 21.5375 144.051 21.1318C145.03 20.7261 145.867 20.0391 146.456 19.1577C147.045 18.2762 147.36 17.2399 147.36 16.1798C147.36 14.7583 146.795 13.3949 145.79 12.3897C144.785 11.3845 143.421 10.8198 142 10.8198Z" fill="#5BAFFB"/>
<path fill-rule="evenodd" clip-rule="evenodd" d="M89.55 23.42H92.55C93.8396 23.9032 95.2604 23.9032 96.55 23.42H99.55C100.425 23.4041 101.294 23.5625 102.106 23.8859C102.919 24.2093 103.659 24.6913 104.284 25.3038C104.909 25.9162 105.405 26.6469 105.744 27.4532C106.083 28.2595 106.259 29.1253 106.26 30V32.56C106.1 32.38 105.93 32.2 105.76 32.03L105.46 31.75C105.334 31.6317 105.2 31.5215 105.06 31.42V31.42L104.9 31.3C104.7 31.16 104.5 31.02 104.3 30.9H104.24L104.13 30.83H104.07L103.97 30.77H103.89H103.82L103.72 30.72H103.64L103.55 30.67H103.48H103.4H103.3H103.21H103.14H103.02H102.89H102.83H102.69L102.54 30.62H102.38H102.23H102.09H101.93H101.77H101.6H101.43H101.25H100.63C99.2703 30.6601 97.9441 31.051 96.7801 31.7548C95.6161 32.4586 94.6538 33.4514 93.9867 34.6368C93.3195 35.8222 92.9701 37.1599 92.9725 38.5202C92.9748 39.8804 93.3288 41.2169 94 42.4H93.51H93.29H93.08H92.87H92.69H92.62H92.46H92.34H92.25H92.11H92.02H91.88H91.8H91.65H91.57V38.59C91.5547 36.2879 90.6578 34.0791 89.0637 32.418C87.4696 30.757 85.2996 29.77 83 29.66C83.0108 29.4086 83.0375 29.1581 83.08 28.91C83.5033 28.1863 83.7977 27.3945 83.95 26.57C84.5372 25.6087 85.3615 24.8142 86.3437 24.2626C87.326 23.7111 88.4335 23.4209 89.56 23.42H89.55Z" fill="#5BAFFB"/>
<path fill-rule="evenodd" clip-rule="evenodd" d="M94.6202 13C95.6349 13 96.6267 13.3009 97.4703 13.8646C98.3139 14.4283 98.9715 15.2294 99.3597 16.1668C99.748 17.1042 99.8496 18.1357 99.6517 19.1308C99.4537 20.1259 98.9651 21.04 98.2477 21.7575C97.5303 22.4749 96.6162 22.9635 95.621 23.1614C94.6259 23.3594 93.5945 23.2578 92.6571 22.8695C91.7197 22.4812 90.9185 21.8237 90.3548 20.9801C89.7911 20.1365 89.4902 19.1446 89.4902 18.13C89.4902 16.7694 90.0307 15.4646 90.9928 14.5025C91.9548 13.5405 93.2597 13 94.6202 13V13Z" fill="#5BAFFB"/>
<path fill-rule="evenodd" clip-rule="evenodd" d="M69.87 15.2002H72.57C73.1434 15.4252 73.754 15.5405 74.37 15.5402C74.9828 15.5414 75.5903 15.426 76.16 15.2002H78.87C80.4094 15.2054 81.8848 15.8172 82.9761 16.9029C84.0675 17.9886 84.6868 19.4608 84.7 21.0002V23.5202C84.4519 23.7062 84.2148 23.9066 83.99 24.1202C83.7341 22.2821 82.7888 20.6101 81.3456 19.4434C79.9024 18.2767 78.0696 17.7025 76.2187 17.8374C74.3678 17.9722 72.6375 18.806 71.3787 20.1695C70.1198 21.5331 69.4268 23.3244 69.44 25.1802C69.4355 26.7775 69.9593 28.3315 70.93 29.6002C69.9803 29.6099 69.0383 29.772 68.14 30.0802V28.8602C68.1346 27.4119 67.7495 25.9904 67.023 24.7376C66.2966 23.4847 65.2542 22.4443 64 21.7202V21.0002C64.0026 19.4538 64.6174 17.9714 65.7099 16.8771C66.8024 15.7827 68.2837 15.1654 69.83 15.1602L69.87 15.2002Z" fill="#5BAFFB"/>
<path fill-rule="evenodd" clip-rule="evenodd" d="M74.3703 6C75.2702 6 76.1499 6.26685 76.8982 6.76681C77.6464 7.26677 78.2296 7.97739 78.574 8.80879C78.9183 9.64019 79.0084 10.555 78.8329 11.4377C78.6573 12.3203 78.224 13.131 77.5876 13.7673C76.9513 14.4037 76.1406 14.837 75.258 15.0126C74.3754 15.1881 73.4605 15.098 72.6291 14.7537C71.7977 14.4093 71.0871 13.8261 70.5871 13.0778C70.0872 12.3296 69.8203 11.4499 69.8203 10.55C69.8203 9.34327 70.2997 8.18595 71.153 7.33266C72.0063 6.47937 73.1636 6 74.3703 6V6Z" fill="#5BAFFB"/>
<path fill-rule="evenodd" clip-rule="evenodd" d="M98.8503 9.21994H101.56C102.713 9.6618 103.988 9.6618 105.14 9.21994H107.85C108.879 9.22153 109.889 9.49527 110.778 10.0134C111.666 10.5315 112.402 11.2755 112.91 12.1699C111.874 13.3962 111.286 14.9392 111.244 16.5445C111.202 18.1498 111.709 19.7214 112.68 20.9999C111.296 21.0239 109.938 21.3797 108.72 22.0375C107.502 22.6952 106.46 23.6357 105.68 24.7799C104.947 23.9418 104.045 23.2673 103.034 22.8004C102.022 22.3335 100.924 22.0846 99.8103 22.0699C100.67 20.9481 101.134 19.5733 101.13 18.1599C101.13 16.444 100.449 14.7983 99.2353 13.585C98.022 12.3716 96.3763 11.6899 94.6604 11.6899C94.4772 11.6797 94.2935 11.6797 94.1104 11.6899C94.6474 10.9196 95.3623 10.2902 96.1944 9.85498C97.0265 9.41978 97.9513 9.19165 98.8904 9.18994L98.8503 9.21994Z" fill="#5BAFFB"/>
<path fill-rule="evenodd" clip-rule="evenodd" d="M103.35 0C104.25 0 105.129 0.266853 105.878 0.766813C106.626 1.26677 107.209 1.97739 107.553 2.80879C107.898 3.64019 107.988 4.55505 107.812 5.43766C107.637 6.32027 107.203 7.13101 106.567 7.76734C105.931 8.40366 105.12 8.83701 104.237 9.01257C103.355 9.18814 102.44 9.09803 101.609 8.75365C100.777 8.40927 100.067 7.82609 99.5666 7.07784C99.0667 6.3296 98.7998 5.44991 98.7998 4.55C98.7998 3.34327 99.2792 2.18595 100.132 1.33266C100.986 0.479374 102.143 0 103.35 0V0Z" fill="#5BAFFB"/>
<path fill-rule="evenodd" clip-rule="evenodd" d="M124.45 12.3701H127.16C128.313 12.812 129.588 12.812 130.74 12.3701H133.45C134.337 12.3823 135.21 12.5979 136 13.0001C135.463 13.9884 135.181 15.0952 135.18 16.2201C135.175 17.6986 135.66 19.1371 136.56 20.3101C135.287 20.3178 134.032 20.6197 132.894 21.1921C131.756 21.7645 130.766 22.592 130 23.6101C128.404 21.9745 126.226 21.0363 123.94 21.0001C124.878 19.7744 125.384 18.2733 125.38 16.7301C125.383 15.1592 124.862 13.6322 123.9 12.3901H124.45V12.3701Z" fill="#5BAFFB"/>
<path fill-rule="evenodd" clip-rule="evenodd" d="M129 3.15018C129.901 3.15808 130.779 3.43247 131.524 3.93875C132.269 4.44503 132.847 5.16053 133.186 5.995C133.524 6.82948 133.608 7.74557 133.427 8.62774C133.246 9.50991 132.807 10.3186 132.167 10.952C131.527 11.5853 130.713 12.0149 129.829 12.1865C128.945 12.3581 128.03 12.264 127.199 11.9162C126.369 11.5684 125.659 10.9824 125.161 10.2321C124.663 9.48178 124.398 8.60077 124.4 7.70018C124.4 7.09843 124.52 6.50266 124.751 5.94734C124.983 5.39202 125.323 4.8882 125.751 4.46503C126.179 4.04187 126.686 3.70776 127.244 3.48207C127.802 3.25637 128.399 3.14356 129 3.15018V3.15018Z" fill="#5BAFFB"/>
</g>
<defs>
<clipPath id="clip0_528:19">
<rect width="212" height="150" fill="white"/>
</clipPath>
</defs>
</svg>
