<svg xmlns="http://www.w3.org/2000/svg" xmlns:xlink="http://www.w3.org/1999/xlink" viewBox="0 0 174.34 153.61"><defs><style>.cls-1,.cls-9{mask:url(#mask);}.cls-1{filter:url(#luminosity-noclip-6);}.cls-10,.cls-2,.cls-4,.cls-6,.cls-8{mix-blend-mode:multiply;}.cls-2{fill:url(#_ÂÁ_Ï_ÌÌ_È_ËÂÌÚ_36);}.cls-3{mask:url(#mask-2);filter:url(#luminosity-noclip-7);}.cls-4{fill:url(#_ÂÁ_Ï_ÌÌ_È_ËÂÌÚ_39);}.cls-5{mask:url(#mask-3);filter:url(#luminosity-noclip-8);}.cls-6{fill:url(#_ÂÁ_Ï_ÌÌ_È_ËÂÌÚ_36-2);}.cls-7{mask:url(#mask-4);filter:url(#luminosity-noclip-9);}.cls-8{fill:url(#_ÂÁ_Ï_ÌÌ_È_ËÂÌÚ_36-3);}.cls-10{fill:url(#_ÂÁ_Ï_ÌÌ_È_ËÂÌÚ_36-4);}.cls-11{isolation:isolate;}.cls-12{mask:url(#mask-6);}.cls-13{fill:url(#_ÂÁ_Ï_ÌÌ_È_ËÂÌÚ_17);}.cls-14{mask:url(#mask-7);}.cls-15{fill:url(#_ÂÁ_Ï_ÌÌ_È_ËÂÌÚ_201);}.cls-16{mask:url(#mask-8);}.cls-17{opacity:0.3;mix-blend-mode:screen;fill:url(#_ÂÁ_Ï_ÌÌ_È_ËÂÌÚ_21);}.cls-18{opacity:0.5;}.cls-19{fill:#fff;mix-blend-mode:soft-light;}.cls-20{mask:url(#mask-9);}.cls-21{fill:url(#_ÂÁ_Ï_ÌÌ_È_ËÂÌÚ_17-2);}.cls-22{fill:url(#_ÂÁ_Ï_ÌÌ_È_ËÂÌÚ_17-3);}.cls-23{fill:#4bcafc;}.cls-24{fill:#053039;}.cls-25{filter:url(#luminosity-noclip-4);}.cls-26{filter:url(#luminosity-noclip-3);}.cls-27{filter:url(#luminosity-noclip-2);}.cls-28{filter:url(#luminosity-noclip);}</style><filter id="luminosity-noclip" x="23.86" y="-8060.61" width="127.26" height="32766" filterUnits="userSpaceOnUse" color-interpolation-filters="sRGB"><feFlood flood-color="#fff" result="bg"/><feBlend in="SourceGraphic" in2="bg"/></filter><mask id="mask" x="23.86" y="-8060.61" width="127.26" height="32766" maskUnits="userSpaceOnUse"><g class="cls-28"/></mask><linearGradient id="_ÂÁ_Ï_ÌÌ_È_ËÂÌÚ_36" x1="84.85" y1="161.42" x2="75.4" y2="3.44" gradientTransform="translate(7.28 -7.28)" gradientUnits="userSpaceOnUse"><stop offset="0" stop-color="#fcfcfc"/><stop offset="1" stop-color="#fff"/></linearGradient><filter id="luminosity-noclip-2" x="27.53" y="-8060.61" width="119.92" height="32766" filterUnits="userSpaceOnUse" color-interpolation-filters="sRGB"><feFlood flood-color="#fff" result="bg"/><feBlend in="SourceGraphic" in2="bg"/></filter><mask id="mask-2" x="27.53" y="-8060.61" width="119.92" height="32766" maskUnits="userSpaceOnUse"><g class="cls-27"/></mask><linearGradient id="_ÂÁ_Ï_ÌÌ_È_ËÂÌÚ_39" x1="43.49" y1="30.44" x2="123.94" y2="147.67" gradientTransform="translate(7.28 -7.28)" gradientUnits="userSpaceOnUse"><stop offset="0.02" stop-color="#fcfcfc"/><stop offset="1" stop-color="#fff"/></linearGradient><filter id="luminosity-noclip-3" x="29.31" y="-8060.61" width="116.36" height="32766" filterUnits="userSpaceOnUse" color-interpolation-filters="sRGB"><feFlood flood-color="#fff" result="bg"/><feBlend in="SourceGraphic" in2="bg"/></filter><mask id="mask-3" x="29.31" y="-8060.61" width="116.36" height="32766" maskUnits="userSpaceOnUse"><g class="cls-26"/></mask><linearGradient id="_ÂÁ_Ï_ÌÌ_È_ËÂÌÚ_36-2" x1="5034.84" y1="172.47" x2="5166.24" y2="261.35" gradientTransform="translate(-119.89 5163.14) rotate(-90)" xlink:href="#_ÂÁ_Ï_ÌÌ_È_ËÂÌÚ_36"/><filter id="luminosity-noclip-4" x="14.63" y="-8060.61" width="145.73" height="32766" filterUnits="userSpaceOnUse" color-interpolation-filters="sRGB"><feFlood flood-color="#fff" result="bg"/><feBlend in="SourceGraphic" in2="bg"/></filter><mask id="mask-4" x="14.63" y="-8060.61" width="145.73" height="32766" maskUnits="userSpaceOnUse"><g class="cls-25"/></mask><linearGradient id="_ÂÁ_Ï_ÌÌ_È_ËÂÌÚ_36-3" x1="84.85" y1="161.42" x2="75.4" y2="3.44" xlink:href="#_ÂÁ_Ï_ÌÌ_È_ËÂÌÚ_36"/><linearGradient id="_ÂÁ_Ï_ÌÌ_È_ËÂÌÚ_36-4" x1="80.22" y1="28.28" x2="80.22" y2="149.53" xlink:href="#_ÂÁ_Ï_ÌÌ_È_ËÂÌÚ_36"/><filter id="luminosity-noclip-6" x="23.86" y="21.57" width="127.26" height="110.21" filterUnits="userSpaceOnUse" color-interpolation-filters="sRGB"><feFlood flood-color="#fff" result="bg"/><feBlend in="SourceGraphic" in2="bg"/></filter><mask id="mask-6" x="23.86" y="21.57" width="127.26" height="110.21" maskUnits="userSpaceOnUse"><g class="cls-1"><path class="cls-2" d="M55.68,21.57,23.86,76.68l31.82,55.11h63.63l31.81-55.11L119.31,21.57Zm61.79,107h-60l-30-51.93,30-51.93h60l30,51.93Z"/></g></mask><linearGradient id="_ÂÁ_Ï_ÌÌ_È_ËÂÌÚ_17" x1="84.85" y1="161.42" x2="75.4" y2="3.44" gradientTransform="translate(7.28 -7.28)" gradientUnits="userSpaceOnUse"><stop offset="0" stop-color="#383b42"/><stop offset="1" stop-color="#707682"/></linearGradient><filter id="luminosity-noclip-7" x="27.53" y="24.75" width="119.92" height="103.85" filterUnits="userSpaceOnUse" color-interpolation-filters="sRGB"><feFlood flood-color="#fff" result="bg"/><feBlend in="SourceGraphic" in2="bg"/></filter><mask id="mask-7" x="27.53" y="24.75" width="119.92" height="103.85" maskUnits="userSpaceOnUse"><g class="cls-3"><polygon class="cls-4" points="57.51 24.75 27.53 76.68 57.51 128.61 117.47 128.61 147.45 76.68 117.47 24.75 57.51 24.75"/></g></mask><linearGradient id="_ÂÁ_Ï_ÌÌ_È_ËÂÌÚ_201" x1="43.49" y1="30.44" x2="123.94" y2="147.67" gradientTransform="translate(7.28 -7.28)" gradientUnits="userSpaceOnUse"><stop offset="0.02" stop-color="#33abdf"/><stop offset="1" stop-color="#6260e4"/></linearGradient><filter id="luminosity-noclip-8" x="29.31" y="26.29" width="116.36" height="100.77" filterUnits="userSpaceOnUse" color-interpolation-filters="sRGB"><feFlood flood-color="#fff" result="bg"/><feBlend in="SourceGraphic" in2="bg"/></filter><mask id="mask-8" x="29.31" y="26.29" width="116.36" height="100.77" maskUnits="userSpaceOnUse"><g class="cls-5"><polygon class="cls-6" points="58.4 26.3 29.32 76.68 58.4 127.06 116.58 127.06 145.67 76.68 116.58 26.3 58.4 26.3"/></g></mask><linearGradient id="_ÂÁ_Ï_ÌÌ_È_ËÂÌÚ_21" x1="5034.84" y1="172.47" x2="5166.24" y2="261.35" gradientTransform="translate(-119.89 5163.14) rotate(-90)" gradientUnits="userSpaceOnUse"><stop offset="0"/><stop offset="1" stop-color="#fff"/></linearGradient><filter id="luminosity-noclip-9" x="14.63" y="12.52" width="145.73" height="128.33" filterUnits="userSpaceOnUse" color-interpolation-filters="sRGB"><feFlood flood-color="#fff" result="bg"/><feBlend in="SourceGraphic" in2="bg"/></filter><mask id="mask-9" x="14.63" y="12.52" width="145.73" height="128.33" maskUnits="userSpaceOnUse"><g class="cls-7"><path class="cls-8" d="M159.3,72.72,126.82,16.47A7.89,7.89,0,0,0,120,12.52H55a7.89,7.89,0,0,0-6.85,3.95L15.69,72.72a7.92,7.92,0,0,0,0,7.91l32.48,56.26a7.91,7.91,0,0,0,6.85,4H120a7.91,7.91,0,0,0,6.85-4L159.3,80.63A7.92,7.92,0,0,0,159.3,72.72Zm-40,59.07H55.68L23.86,76.68,55.68,21.57h63.63l31.81,55.11Z"/></g></mask><linearGradient id="_ÂÁ_Ï_ÌÌ_È_ËÂÌÚ_17-2" x1="84.85" y1="161.42" x2="75.4" y2="3.44" xlink:href="#_ÂÁ_Ï_ÌÌ_È_ËÂÌÚ_17"/><linearGradient id="_ÂÁ_Ï_ÌÌ_È_ËÂÌÚ_17-3" x1="80.22" y1="28.28" x2="80.22" y2="149.53" xlink:href="#_ÂÁ_Ï_ÌÌ_È_ËÂÌÚ_17"/></defs><g class="cls-11"><g id="Layer_2" data-name="Layer 2"><g id="Layer_1-2" data-name="Layer 1"><g class="cls-12"><path class="cls-13" d="M55.68,21.57,23.86,76.68l31.82,55.11h63.63l31.81-55.11L119.31,21.57Zm61.79,107h-60l-30-51.93,30-51.93h60l30,51.93Z"/></g><g class="cls-14"><polygon class="cls-15" points="57.51 24.75 27.53 76.68 57.51 128.61 117.47 128.61 147.45 76.68 117.47 24.75 57.51 24.75"/></g><g class="cls-16"><polygon class="cls-17" points="58.4 26.3 29.32 76.68 58.4 127.06 116.58 127.06 145.67 76.68 116.58 26.3 58.4 26.3"/></g><g class="cls-18"><path class="cls-19" d="M47.87,53.28a.27.27,0,0,0,.24.14H63.9a1.55,1.55,0,1,0,0-.57H48.28l-8.12-14a.29.29,0,0,0-.4-.11.29.29,0,0,0-.1.4Zm17.55-1.12a1,1,0,1,1-1,1A1,1,0,0,1,65.42,52.16Z"/><path class="cls-19" d="M88.42,39.15a.32.32,0,0,0,.25.14h4.59a.27.27,0,0,0,.24-.14l4.25-6.95a1.27,1.27,0,0,0,.34,0,1.55,1.55,0,1,0-1.55-1.54A1.52,1.52,0,0,0,97.22,32L93.1,38.71H88.84L80.77,24.76a.29.29,0,0,0-.39-.1.29.29,0,0,0-.11.39Zm9.67-9.43a1,1,0,1,1-1,1A1,1,0,0,1,98.09,29.72Z"/><path class="cls-19" d="M89,48.14a1.55,1.55,0,1,0,0,.58h16a.28.28,0,0,0,.24-.15l16.1-28.26a.29.29,0,1,0-.5-.28l-16,28.11ZM87.44,49.4a1,1,0,1,1,1-1A1,1,0,0,1,87.44,49.4Z"/><path class="cls-19" d="M121,48.43v9.15a1.55,1.55,0,1,0,.58,0V48.51l8-14.07a.29.29,0,1,0-.5-.29l-8,14.14A.33.33,0,0,0,121,48.43Zm1.23,10.68a1,1,0,1,1-1-1A1,1,0,0,1,122.18,59.11Z"/><path class="cls-19" d="M121.28,29.34a.29.29,0,0,0-.39.1l-16,28.12H88.78a.29.29,0,0,0-.25.14L80.59,71.63a1.76,1.76,0,0,0-.4-.06,1.55,1.55,0,1,0,1.55,1.55,1.54,1.54,0,0,0-.63-1.24L89,58.13H105a.29.29,0,0,0,.25-.14l16.09-28.26A.29.29,0,0,0,121.28,29.34ZM80.19,74.09a1,1,0,1,1,1-1A1,1,0,0,1,80.19,74.09Z"/><path class="cls-19" d="M113.5,62.08a.29.29,0,0,0-.24.14l-4.34,7.06H93a1.55,1.55,0,1,0,0,.58h16.1a.29.29,0,0,0,.25-.14l4.33-7.06,32,.18h0a.29.29,0,1,0,0-.57l-32.19-.19Zm-22,8.46a1,1,0,1,1,1-1A1,1,0,0,1,91.47,70.54Z"/><path class="cls-19" d="M142.26,67.39H121.47a1.55,1.55,0,1,0,0,.58h20.79a.29.29,0,0,0,0-.58ZM120,68.65a1,1,0,1,1,1-1A1,1,0,0,1,120,68.65Z"/><path class="cls-19" d="M66.47,35a1.55,1.55,0,1,0-1.55,1.55,1.27,1.27,0,0,0,.28,0l6.94,12L64.25,62.27H48.33l-8-14a.29.29,0,1,0-.5.28L47.92,62.7a.27.27,0,0,0,.25.14H64.42a.29.29,0,0,0,.25-.14l8-14.13a.28.28,0,0,0,0-.28l-7-12A1.54,1.54,0,0,0,66.47,35Zm-1.55,1a1,1,0,1,1,1-1A1,1,0,0,1,64.92,35.94Z"/><path class="cls-19" d="M64.16,31.13a1.55,1.55,0,0,0,1.52-1.26H72.2l8,13.84-15.93,28H48.38l-8.12-14a.29.29,0,0,0-.5.29L48,72.12a.31.31,0,0,0,.25.14H64.47a.28.28,0,0,0,.25-.15L80.74,44H96.83a.29.29,0,0,0,.25-.15l8-14a1.52,1.52,0,0,0,.42.06A1.55,1.55,0,1,0,104,28.33a1.52,1.52,0,0,0,.61,1.22L96.66,43.42H80.74l-8.12-14a.3.3,0,0,0-.25-.14H65.68a1.55,1.55,0,1,0-1.52,1.83Zm41.34-3.78a1,1,0,1,1-1,1A1,1,0,0,1,105.5,27.35ZM64.16,28.61a1,1,0,1,1-1,1A1,1,0,0,1,64.16,28.61Z"/><path class="cls-19" d="M89.49,60.74a.29.29,0,0,0-.39.1l-4.36,7.64a.28.28,0,0,0,.11.39.25.25,0,0,0,.14,0,.27.27,0,0,0,.25-.15l4.35-7.63A.28.28,0,0,0,89.49,60.74Z"/><path class="cls-19" d="M100.93,51.07a.29.29,0,1,0,0-.58H92.72a.29.29,0,0,0,0,.58Z"/><path class="cls-19" d="M109.06,55.78a.29.29,0,0,0,.25-.14L115,45.29a.28.28,0,0,0-.11-.39.3.3,0,0,0-.39.12l-5.65,10.34a.28.28,0,0,0,.11.39A.35.35,0,0,0,109.06,55.78Z"/><path class="cls-19" d="M127.88,61a.29.29,0,0,0,.29.28h6.46a.29.29,0,1,0,0-.57h-6.46A.29.29,0,0,0,127.88,61Z"/><path class="cls-19" d="M72.44,44.82a.28.28,0,0,0,.15,0,.29.29,0,0,0,.1-.39L69.28,38.5a.29.29,0,0,0-.4-.11.3.3,0,0,0-.1.4l3.41,5.89A.3.3,0,0,0,72.44,44.82Z"/><path class="cls-19" d="M81.81,42.14a.27.27,0,0,0,.24.14h3.83a.29.29,0,0,0,.29-.29.28.28,0,0,0-.29-.28H82.22L79.14,36.5a.29.29,0,0,0-.39-.1.29.29,0,0,0-.11.39Z"/><path class="cls-19" d="M50.3,64.52a.27.27,0,0,0-.28.28.28.28,0,0,0,.28.29h8.62a.29.29,0,0,0,.29-.29.28.28,0,0,0-.29-.28Z"/><path class="cls-19" d="M45.05,71l-3.12-5.46a.28.28,0,0,0-.39-.11.29.29,0,0,0-.11.39l3.12,5.46a.29.29,0,0,0,.25.15.43.43,0,0,0,.14,0A.29.29,0,0,0,45.05,71Z"/><path class="cls-19" d="M50.45,51.52h6.6a.29.29,0,1,0,0-.57h-6.6a.29.29,0,1,0,0,.57Z"/><path class="cls-19" d="M84.06,60.39a.26.26,0,0,0,.15,0,.28.28,0,0,0,.24-.14l2.88-4.7h4.54a.28.28,0,0,0,.29-.28.29.29,0,0,0-.29-.29H87.33l-2.09-3.3a.29.29,0,0,0-.49.31l2.08,3.28L84,60A.29.29,0,0,0,84.06,60.39Z"/><path class="cls-19" d="M106.3,40.68a.28.28,0,0,0,.15,0,.31.31,0,0,0,.25-.13l5.1-8.49a.29.29,0,0,0-.5-.29l-5.1,8.48A.29.29,0,0,0,106.3,40.68Z"/><path class="cls-19" d="M47.92,90.69l-8.08,14.14a.28.28,0,0,0,.11.39.29.29,0,0,0,.39-.1l8-14H64.25L72.14,105l-6.94,12a1.27,1.27,0,0,0-.28,0,1.56,1.56,0,1,0,.82.24l7-12a.3.3,0,0,0,0-.29l-8-14.13a.31.31,0,0,0-.25-.14H48.17A.27.27,0,0,0,47.92,90.69Zm17,28.71a1,1,0,1,1,1-1A1,1,0,0,1,64.92,119.4Z"/><path class="cls-19" d="M105.23,104.82a.28.28,0,0,0-.24-.15H89a1.55,1.55,0,1,0,0,.58h15.86l16,28.11a.29.29,0,0,0,.5-.28Zm-17.79,1.11a1,1,0,1,1,1-1A1,1,0,0,1,87.44,105.93Z"/><path class="cls-19" d="M121.53,104.88V95.8a1.55,1.55,0,1,0-.58,0V105a.33.33,0,0,0,0,.14l8,14.14a.29.29,0,1,0,.5-.29Zm-1.29-10.59a1,1,0,1,1,1,1A1,1,0,0,1,120.24,94.29Z"/><path class="cls-19" d="M105.29,95.4a.29.29,0,0,0-.25-.14H89L81.11,81.51a1.54,1.54,0,0,0,.63-1.24,1.55,1.55,0,1,0-1.55,1.55,1.76,1.76,0,0,0,.4-.06l7.94,13.93a.29.29,0,0,0,.25.14h16.09l16,28.12a.28.28,0,0,0,.39.1.29.29,0,0,0,.1-.39ZM79.22,80.27a1,1,0,1,1,1,1A1,1,0,0,1,79.22,80.27Z"/><path class="cls-19" d="M145.7,90.55h0l-32,.18-4.33-7.06a.29.29,0,0,0-.25-.14H93a1.55,1.55,0,1,0,0,.58h15.94l4.34,7.06a.29.29,0,0,0,.24.14h0l32.19-.19a.29.29,0,1,0,0-.57ZM91.47,84.79a1,1,0,1,1,1-1A1,1,0,0,1,91.47,84.79Z"/><path class="cls-19" d="M142.26,85.42H121.47a1.55,1.55,0,1,0,0,.58h20.79a.29.29,0,1,0,0-.58ZM120,86.68a1,1,0,1,1,1-1A1,1,0,0,1,120,86.68Z"/><path class="cls-19" d="M65.42,101.8A1.55,1.55,0,1,0,63.9,100H48.11a.27.27,0,0,0-.24.14l-8.21,14.13a.29.29,0,0,0,.1.4.29.29,0,0,0,.4-.11l8.12-14H63.9A1.55,1.55,0,0,0,65.42,101.8Zm0-2.52a1,1,0,1,1-1,1A1,1,0,0,1,65.42,99.28Z"/><path class="cls-19" d="M98.09,121.15a1.27,1.27,0,0,0-.34,0l-4.25-7a.27.27,0,0,0-.24-.14H88.67a.32.32,0,0,0-.25.14l-8.15,14.1a.28.28,0,0,0,.11.39.29.29,0,0,0,.39-.1l8.07-13.95H93.1l4.12,6.74a1.52,1.52,0,0,0-.68,1.28,1.55,1.55,0,1,0,1.55-1.55Zm0,2.52a1,1,0,1,1,1-1A1,1,0,0,1,98.09,123.67Z"/><path class="cls-19" d="M105.5,123.52a1.52,1.52,0,0,0-.42.06l-8-14a.29.29,0,0,0-.25-.15H80.74l-16-28.11a.28.28,0,0,0-.25-.15H48.22a.29.29,0,0,0-.25.15L39.76,95.4a.29.29,0,0,0,.5.29l8.12-14H64.31l15.93,28-8,13.84H65.68a1.55,1.55,0,1,0,0,.57h6.69a.3.3,0,0,0,.25-.14l8.12-14H96.66l7.91,13.87a1.52,1.52,0,0,0-.61,1.22,1.55,1.55,0,1,0,1.54-1.54Zm-41.34,1.26a1,1,0,1,1,1-1A1,1,0,0,1,64.16,124.78ZM105.5,126a1,1,0,1,1,1-1A1,1,0,0,1,105.5,126Z"/><path class="cls-19" d="M85.24,84.63a.29.29,0,0,0-.25-.15.37.37,0,0,0-.14,0,.28.28,0,0,0-.11.39l4.36,7.64a.29.29,0,0,0,.39.1.28.28,0,0,0,.1-.39Z"/><path class="cls-19" d="M100.93,102.9a.29.29,0,1,0,0-.58H92.72a.29.29,0,0,0,0,.58Z"/><path class="cls-19" d="M114.85,108.49a.28.28,0,0,0,.11-.39l-5.65-10.34a.27.27,0,0,0-.25-.15.35.35,0,0,0-.14,0,.28.28,0,0,0-.11.39l5.65,10.34A.29.29,0,0,0,114.85,108.49Z"/><path class="cls-19" d="M134.63,92.12h-6.46a.29.29,0,1,0,0,.57h6.46a.29.29,0,1,0,0-.57Z"/><path class="cls-19" d="M72.59,108.61a.28.28,0,0,0-.15,0,.29.29,0,0,0-.25.15l-3.41,5.89a.29.29,0,0,0,.1.39.29.29,0,0,0,.4-.11L72.69,109A.29.29,0,0,0,72.59,108.61Z"/><path class="cls-19" d="M85.88,111.68a.28.28,0,0,0,.29-.28.29.29,0,0,0-.29-.29H82.05a.27.27,0,0,0-.24.14l-3.17,5.35a.29.29,0,0,0,.11.39.28.28,0,0,0,.39-.1l3.08-5.21Z"/><path class="cls-19" d="M58.92,88.87a.28.28,0,0,0,.29-.28.29.29,0,0,0-.29-.29H50.3a.28.28,0,0,0-.28.29.27.27,0,0,0,.28.28Z"/><path class="cls-19" d="M44.94,82a.43.43,0,0,0-.14,0,.29.29,0,0,0-.25.15L41.43,87.6a.29.29,0,0,0,.11.39.28.28,0,0,0,.39-.11l3.12-5.46A.29.29,0,0,0,44.94,82Z"/><path class="cls-19" d="M57.05,101.87h-6.6a.29.29,0,1,0,0,.57h6.6a.29.29,0,1,0,0-.57Z"/><path class="cls-19" d="M84.84,101.76a.3.3,0,0,0,.4-.09l2.09-3.3h4.54a.29.29,0,1,0,0-.57H87.33l-2.88-4.7a.28.28,0,0,0-.24-.14.26.26,0,0,0-.15,0,.29.29,0,0,0-.1.4l2.87,4.68-2.08,3.28A.3.3,0,0,0,84.84,101.76Z"/><path class="cls-19" d="M106.7,112.81a.3.3,0,0,0-.25-.14.28.28,0,0,0-.15,0,.29.29,0,0,0-.1.39l5.1,8.48a.29.29,0,0,0,.5-.29Z"/></g><g class="cls-20"><path class="cls-21" d="M159.3,72.72,126.82,16.47A7.89,7.89,0,0,0,120,12.52H55a7.89,7.89,0,0,0-6.85,3.95L15.69,72.72a7.92,7.92,0,0,0,0,7.91l32.48,56.26a7.91,7.91,0,0,0,6.85,4H120a7.91,7.91,0,0,0,6.85-4L159.3,80.63A7.92,7.92,0,0,0,159.3,72.72Zm-40,59.07H55.68L23.86,76.68,55.68,21.57h63.63l31.81,55.11Z"/></g><g class="cls-12"><path class="cls-22" d="M55.68,21.57,23.86,76.68l31.82,55.11h63.63l31.81-55.11L119.31,21.57Zm61.79,107h-60l-30-51.93,30-51.93h60l30,51.93Z"/></g><path class="cls-23" d="M40,48.92a.32.32,0,0,0,.29.17H59.05a1.84,1.84,0,1,0,0-.68H40.44L30.76,31.73a.35.35,0,0,0-.6.35Zm20.91-1.33a1.16,1.16,0,1,1-1.15,1.16A1.16,1.16,0,0,1,60.86,47.59Z"/><path class="cls-23" d="M88.28,32.08a.34.34,0,0,0,.29.17H94a.32.32,0,0,0,.29-.17l5.06-8.28a1.83,1.83,0,0,0,.4.05A1.85,1.85,0,1,0,98,22a1.83,1.83,0,0,0,.81,1.52l-4.91,8H88.77L79.16,14.94a.36.36,0,0,0-.47-.13.35.35,0,0,0-.13.47ZM99.79,20.85A1.16,1.16,0,1,1,98.63,22,1.16,1.16,0,0,1,99.79,20.85Z"/><path class="cls-23" d="M88.91,42.8a1.84,1.84,0,1,0,0,.68H108a.33.33,0,0,0,.3-.17L127.49,9.63a.34.34,0,0,0-.59-.34L107.81,42.8ZM87.1,44.3a1.16,1.16,0,1,1,1.16-1.16A1.16,1.16,0,0,1,87.1,44.3Z"/><path class="cls-23" d="M127,43.14V54.05a1.83,1.83,0,1,0,.69,0V43.23l9.54-16.77a.34.34,0,0,0-.59-.33L127.09,43A.34.34,0,0,0,127,43.14Zm1.47,12.72a1.16,1.16,0,1,1-1.16-1.16A1.16,1.16,0,0,1,128.51,55.86Z"/><path class="cls-23" d="M127.43,20.39a.33.33,0,0,0-.47.13L107.88,54H88.7a.32.32,0,0,0-.29.17l-9.47,16.6a1.85,1.85,0,1,0,.62.3L88.9,54.7h19.17a.33.33,0,0,0,.3-.17l19.18-33.68A.33.33,0,0,0,127.43,20.39Zm-49,53.33a1.16,1.16,0,1,1,1.15-1.16A1.16,1.16,0,0,1,78.47,73.72Z"/><path class="cls-23" d="M118.16,59.41a.34.34,0,0,0-.29.16L112.71,68h-19a1.85,1.85,0,1,0,0,.68H112.9a.34.34,0,0,0,.29-.16l5.16-8.41,38.18.21h0a.35.35,0,0,0,.35-.34.34.34,0,0,0-.34-.34l-38.37-.22ZM91.9,69.49a1.16,1.16,0,1,1,1.16-1.16A1.16,1.16,0,0,1,91.9,69.49Z"/><path class="cls-23" d="M152.43,65.74H127.66a1.85,1.85,0,1,0,0,.68h24.77a.34.34,0,0,0,0-.68Zm-26.58,1.5A1.16,1.16,0,1,1,127,66.08,1.16,1.16,0,0,1,125.85,67.24Z"/><path class="cls-23" d="M62.11,27.09a1.84,1.84,0,1,0-1.84,1.85,1.86,1.86,0,0,0,.34,0l8.26,14.24-9.4,16.49h-19L31,43a.35.35,0,0,0-.47-.13.34.34,0,0,0-.13.47L40,60.14a.35.35,0,0,0,.3.17H59.67a.33.33,0,0,0,.3-.17l9.6-16.83a.32.32,0,0,0,0-.34L61.25,28.65A1.84,1.84,0,0,0,62.11,27.09Zm-1.84,1.16a1.16,1.16,0,1,1,1.16-1.16A1.16,1.16,0,0,1,60.27,28.25Z"/><path class="cls-23" d="M59.36,22.53A1.85,1.85,0,0,0,61.17,21h7.77l9.58,16.49-19,33.33h-19L30.88,54.19a.33.33,0,0,0-.46-.13.35.35,0,0,0-.13.47l9.78,16.84a.34.34,0,0,0,.29.17H59.74a.33.33,0,0,0,.29-.18l19.09-33.5H98.29a.36.36,0,0,0,.3-.17L108.13,21a2,2,0,0,0,.5.08,1.85,1.85,0,1,0-1.84-1.85,1.8,1.8,0,0,0,.73,1.46L98.09,37.17h-19L69.44,20.51a.36.36,0,0,0-.3-.17h-8a1.84,1.84,0,1,0-1.81,2.19ZM108.63,18a1.16,1.16,0,1,1-1.16,1.16A1.16,1.16,0,0,1,108.63,18ZM59.36,19.53a1.16,1.16,0,1,1-1.16,1.15A1.16,1.16,0,0,1,59.36,19.53Z"/><path class="cls-23" d="M89.54,57.8a.34.34,0,0,0-.46.13L83.89,67a.34.34,0,0,0,.13.47.33.33,0,0,0,.17,0,.35.35,0,0,0,.3-.17l5.18-9.1A.34.34,0,0,0,89.54,57.8Z"/><path class="cls-23" d="M103.18,46.28a.34.34,0,1,0,0-.68H93.4a.34.34,0,1,0,0,.68Z"/><path class="cls-23" d="M112.87,51.91a.35.35,0,0,0,.3-.18L119.9,39.4a.34.34,0,0,0-.6-.33L112.57,51.4a.34.34,0,0,0,.14.46A.3.3,0,0,0,112.87,51.91Z"/><path class="cls-23" d="M135.3,58.1a.34.34,0,0,0,.34.34h7.7a.34.34,0,1,0,0-.68h-7.7A.34.34,0,0,0,135.3,58.1Z"/><path class="cls-23" d="M69.23,38.84a.34.34,0,0,0,.17-.05.34.34,0,0,0,.13-.47l-4.07-7a.34.34,0,0,0-.47-.12.34.34,0,0,0-.12.47l4.07,7A.34.34,0,0,0,69.23,38.84Z"/><path class="cls-23" d="M80.39,35.64a.32.32,0,0,0,.29.17h4.57a.34.34,0,1,0,0-.68H80.88l-3.67-6.2a.33.33,0,0,0-.47-.12.35.35,0,0,0-.12.47Z"/><path class="cls-23" d="M42.85,62.31a.34.34,0,1,0,0,.68H53.12a.34.34,0,1,0,0-.68Z"/><path class="cls-23" d="M36.58,70l-3.7-6.51a.36.36,0,0,0-.47-.13.35.35,0,0,0-.13.47L36,70.34a.34.34,0,0,0,.3.17.41.41,0,0,0,.17-.05A.33.33,0,0,0,36.58,70Z"/><path class="cls-23" d="M43,46.83H50.9a.35.35,0,0,0,0-.69H43a.35.35,0,0,0,0,.69Z"/><path class="cls-23" d="M83.07,57.39a.41.41,0,0,0,.18,0,.34.34,0,0,0,.29-.16L87,51.68h5.41a.35.35,0,0,0,0-.69H87l-2.49-3.92A.34.34,0,0,0,84,47a.34.34,0,0,0-.1.47l2.48,3.91L83,56.92A.34.34,0,0,0,83.07,57.39Z"/><path class="cls-23" d="M109.58,33.91a.41.41,0,0,0,.18.05.34.34,0,0,0,.29-.17l6.08-10.11a.34.34,0,0,0-.12-.47.35.35,0,0,0-.47.12l-6.08,10.11A.35.35,0,0,0,109.58,33.91Z"/><path class="cls-23" d="M40,93.51l-9.62,16.84a.35.35,0,0,0,.13.47.36.36,0,0,0,.47-.13L40.5,94h19l9.4,16.49-8.26,14.23a1.87,1.87,0,0,0-.34,0,1.85,1.85,0,1,0,1.84,1.84,1.82,1.82,0,0,0-.86-1.55l8.31-14.32a.32.32,0,0,0,0-.34L60,93.51a.34.34,0,0,0-.3-.18H40.3A.36.36,0,0,0,40,93.51Zm20.27,34.2a1.16,1.16,0,1,1,1.16-1.16A1.16,1.16,0,0,1,60.27,127.71Z"/><path class="cls-23" d="M108.31,110.34a.34.34,0,0,0-.3-.18H88.91a1.85,1.85,0,1,0,0,.69h18.9l19.09,33.5a.33.33,0,0,0,.46.13.34.34,0,0,0,.13-.47ZM87.1,111.67a1.16,1.16,0,1,1,1.16-1.16A1.16,1.16,0,0,1,87.1,111.67Z"/><path class="cls-23" d="M127.73,110.42V99.59a1.86,1.86,0,1,0-.69,0v10.91a.37.37,0,0,0,0,.17l9.59,16.84a.34.34,0,1,0,.59-.34Zm-1.54-12.64a1.16,1.16,0,1,1,1.16,1.16A1.15,1.15,0,0,1,126.19,97.78Z"/><path class="cls-23" d="M108.37,99.12a.34.34,0,0,0-.3-.18H88.9L79.56,82.56a1.93,1.93,0,1,0-.62.3l9.47,16.6a.34.34,0,0,0,.29.17h19.18L127,133.13a.34.34,0,1,0,.59-.34Zm-31.06-18a1.16,1.16,0,1,1,1.16,1.15A1.16,1.16,0,0,1,77.31,81.09Z"/><path class="cls-23" d="M156.53,93.33h0l-38.18.22-5.16-8.42a.34.34,0,0,0-.29-.16H93.71a1.85,1.85,0,1,0,0,.69h19l5.16,8.41a.34.34,0,0,0,.29.16h0L156.54,94a.35.35,0,1,0,0-.69ZM91.9,86.47a1.16,1.16,0,1,1,1.16-1.16A1.16,1.16,0,0,1,91.9,86.47Z"/><path class="cls-23" d="M152.43,87.22H127.66a1.85,1.85,0,1,0,0,.69h24.77a.35.35,0,0,0,0-.69Zm-26.58,1.5A1.16,1.16,0,1,1,127,87.56,1.16,1.16,0,0,1,125.85,88.72Z"/><path class="cls-23" d="M60.86,106.74a1.85,1.85,0,1,0-1.81-2.19H40.24a.34.34,0,0,0-.29.17l-9.79,16.85a.34.34,0,1,0,.6.34l9.68-16.67H59.05A1.85,1.85,0,0,0,60.86,106.74Zm0-3a1.16,1.16,0,1,1-1.15,1.16A1.16,1.16,0,0,1,60.86,103.74Z"/><path class="cls-23" d="M99.79,129.8a1.81,1.81,0,0,0-.4,0l-5.06-8.28a.34.34,0,0,0-.29-.16H88.57a.32.32,0,0,0-.29.17l-9.72,16.79a.35.35,0,0,0,.6.35l9.61-16.63h5.08l4.91,8a1.84,1.84,0,1,0,1-.32Zm0,3a1.16,1.16,0,1,1,1.16-1.16A1.16,1.16,0,0,1,99.79,132.8Z"/><path class="cls-23" d="M108.63,132.62a1.64,1.64,0,0,0-.5.08L98.59,116a.34.34,0,0,0-.3-.17H79.12L60,82.28a.34.34,0,0,0-.29-.17H40.36a.34.34,0,0,0-.29.17L30.29,99.11a.34.34,0,0,0,.13.47.33.33,0,0,0,.46-.12L40.56,82.8h19l19,33.33-9.58,16.49H61.17a1.85,1.85,0,1,0,0,.68h8a.34.34,0,0,0,.3-.17l9.68-16.66h19L107.52,133a1.82,1.82,0,0,0-.73,1.46,1.84,1.84,0,1,0,1.84-1.84Zm-49.27,1.5A1.16,1.16,0,1,1,60.52,133,1.16,1.16,0,0,1,59.36,134.12Zm49.27,1.5a1.16,1.16,0,1,1,1.16-1.16A1.16,1.16,0,0,1,108.63,135.62Z"/><path class="cls-23" d="M84.49,86.28a.36.36,0,0,0-.3-.18.34.34,0,0,0-.17.05.34.34,0,0,0-.13.47l5.19,9.09a.34.34,0,1,0,.59-.34Z"/><path class="cls-23" d="M103.18,108.05a.34.34,0,1,0,0-.68H93.4a.34.34,0,1,0,0,.68Z"/><path class="cls-23" d="M119.77,114.71a.34.34,0,0,0,.13-.46l-6.73-12.33a.35.35,0,0,0-.3-.18.29.29,0,0,0-.16,0,.35.35,0,0,0-.14.47l6.73,12.32A.35.35,0,0,0,119.77,114.71Z"/><path class="cls-23" d="M143.34,95.2h-7.7a.34.34,0,0,0-.34.34.35.35,0,0,0,.34.35h7.7a.35.35,0,0,0,.34-.35A.34.34,0,0,0,143.34,95.2Z"/><path class="cls-23" d="M69.4,114.86a.26.26,0,0,0-.17,0,.34.34,0,0,0-.29.17l-4.07,7a.34.34,0,1,0,.59.34l4.07-7A.33.33,0,0,0,69.4,114.86Z"/><path class="cls-23" d="M85.25,118.52a.34.34,0,0,0,.34-.34.35.35,0,0,0-.34-.35H80.68a.34.34,0,0,0-.29.17l-3.77,6.37a.35.35,0,0,0,.12.47.34.34,0,0,0,.47-.12l3.67-6.2Z"/><path class="cls-23" d="M53.12,91.34a.35.35,0,0,0,.34-.35.34.34,0,0,0-.34-.34H42.85a.34.34,0,0,0-.34.34.35.35,0,0,0,.34.35Z"/><path class="cls-23" d="M36.46,83.18a.38.38,0,0,0-.17,0,.34.34,0,0,0-.3.17l-3.71,6.51a.33.33,0,0,0,.13.46.34.34,0,0,0,.47-.12l3.7-6.51A.34.34,0,0,0,36.46,83.18Z"/><path class="cls-23" d="M50.9,106.82H43a.34.34,0,0,0,0,.68H50.9a.34.34,0,1,0,0-.68Z"/><path class="cls-23" d="M84,106.69a.35.35,0,0,0,.48-.11L87,102.65h5.41a.34.34,0,0,0,0-.68H87l-3.43-5.6a.32.32,0,0,0-.29-.16.31.31,0,0,0-.18.05.34.34,0,0,0-.11.47l3.42,5.58-2.48,3.9A.35.35,0,0,0,84,106.69Z"/><path class="cls-23" d="M110.05,119.85a.35.35,0,0,0-.29-.16.31.31,0,0,0-.18,0,.35.35,0,0,0-.12.47l6.08,10.1a.34.34,0,0,0,.47.12.34.34,0,0,0,.12-.47Z"/><path class="cls-23" d="M125.87,153.61H48.47A9.79,9.79,0,0,1,40,148.72L1.3,81.69a9.84,9.84,0,0,1,0-9.77L40,4.89A9.79,9.79,0,0,1,48.47,0h77.4a9.79,9.79,0,0,1,8.46,4.89l38.7,67a9.8,9.8,0,0,1,0,9.77l-38.7,67A9.79,9.79,0,0,1,125.87,153.61ZM48.47.68A9.12,9.12,0,0,0,40.6,5.23l-38.7,67a9.11,9.11,0,0,0,0,9.09l38.7,67a9.11,9.11,0,0,0,7.87,4.54h77.4a9.11,9.11,0,0,0,7.87-4.54l38.7-67a9.11,9.11,0,0,0,0-9.09l-38.7-67A9.12,9.12,0,0,0,125.87.68Zm76.81,142.13H49.06l-.1-.17L11,76.8l.1-.17,38-65.84h76.22l.1.17,38,65.84-.1.17Zm-75.83-.68h75.43L162.6,76.8,124.88,11.48H49.45L11.74,76.8Z"/><path class="cls-23" d="M125.28,142.81H49.06l-.1-.17L11,76.8l.1-.17,38-65.84h76.22l.1.17,38,65.84-.1.17Zm-75.83-.68h75.43L162.6,76.8,124.88,11.48H49.45L11.74,76.8Zm73.64-3.1H51.25l-.1-.18-35.83-62,.1-.17,35.83-62h71.84l.1.17L159,76.8l-.1.17Zm-71.45-.69H122.7L158.22,76.8,122.7,15.27H51.64L16.11,76.8Z"/><path class="cls-24" d="M76.1,83.92a15,15,0,0,0,4.6,10.6A21.57,21.57,0,0,0,96,100.45c4.8,0,11.66-2,17.51-7.06a4.37,4.37,0,0,1,7.23,3.31,4.43,4.43,0,0,1-1.26,3.08,19.53,19.53,0,0,1-2.08,1.76,34,34,0,0,1-19.93,6.75c-8.93,0-16.44-2.79-21.71-8.06a25.59,25.59,0,0,1-7.52-17.38,20.07,20.07,0,0,1,5.46-14.18,13.49,13.49,0,0,1,9.51-4.14,13.33,13.33,0,0,1,9.49,3.84,12.23,12.23,0,0,1,1.78,2.25,8.59,8.59,0,0,0-4.7-1.26C82.23,69.36,76.1,75.89,76.1,83.92Z"/><path class="cls-24" d="M83.18,63a15,15,0,0,0-10.61,4.59,21.63,21.63,0,0,0-5.92,15.27c0,4.8,2,11.67,7.06,17.51a4.38,4.38,0,0,1-6.39,6,19.53,19.53,0,0,1-1.76-2.08,34,34,0,0,1-6.75-19.92c0-8.93,2.79-16.44,8.06-21.71a25.61,25.61,0,0,1,17.38-7.53,20,20,0,0,1,14.18,5.47,13.47,13.47,0,0,1,4.14,9.5,13.3,13.3,0,0,1-3.84,9.49,12.63,12.63,0,0,1-2.25,1.79,8.64,8.64,0,0,0,1.26-4.7C97.74,69.14,91.21,63,83.18,63Z"/><path class="cls-24" d="M104.08,70.09a15,15,0,0,0-4.59-10.6,21.59,21.59,0,0,0-15.28-5.92c-4.79,0-11.66,2-17.51,7a4.37,4.37,0,0,1-6-6.38,19.62,19.62,0,0,1,2.08-1.77,33.92,33.92,0,0,1,19.92-6.74c8.93,0,16.44,2.78,21.71,8.05A25.61,25.61,0,0,1,112,71.17a20,20,0,0,1-5.47,14.17A13.47,13.47,0,0,1,97,89.48a13.26,13.26,0,0,1-9.49-3.84,12.29,12.29,0,0,1-1.79-2.25,8.64,8.64,0,0,0,4.7,1.26C98,84.65,104.08,78.12,104.08,70.09Z"/><path class="cls-24" d="M97,91a15,15,0,0,0,10.6-4.6,21.61,21.61,0,0,0,5.92-15.27c0-4.8-2-11.66-7-17.51a4.37,4.37,0,0,1,6.38-6,19.62,19.62,0,0,1,1.77,2.08,34,34,0,0,1,6.74,19.93c0,8.93-2.78,16.44-8.05,21.71a25.6,25.6,0,0,1-17.39,7.52,20,20,0,0,1-14.17-5.46,13.49,13.49,0,0,1-4.14-9.51,13.29,13.29,0,0,1,3.84-9.49,12.73,12.73,0,0,1,2.25-1.79,8.65,8.65,0,0,0-1.26,4.71C82.45,84.87,89,91,97,91Z"/></g></g></g></svg>