<svg xmlns="http://www.w3.org/2000/svg" viewBox="0 0 32.8 25.16"><defs><style>.cls-1{fill:#c6c6c6;}</style></defs><g id="Layer_2" data-name="Layer 2"><g id="Layer_1-2" data-name="Layer 1"><path class="cls-1" d="M0,12.58a1.8,1.8,0,0,0,1.8,1.8H26.66L19,22.09a1.8,1.8,0,1,0,2.54,2.54L32.27,13.85a1.86,1.86,0,0,0,.22-.27l.08-.14.09-.17.06-.19c0-.05,0-.1,0-.15a1.65,1.65,0,0,0,0-.7c0-.06,0-.1,0-.16l-.06-.18-.09-.17-.08-.14a1.44,1.44,0,0,0-.22-.27L21.49.53A1.78,1.78,0,0,0,19,.53a1.78,1.78,0,0,0,0,2.54l7.71,7.71H1.8A1.8,1.8,0,0,0,0,12.58Z"/></g></g></svg>