<svg width="1584" height="107" viewBox="0 0 1584 107" fill="none" xmlns="http://www.w3.org/2000/svg" preserveAspectRatio='none'>
<path d="M0 12.6699C66 12.6699 66 93.8399 132 93.8399C198 93.8399 198 12.6699 264 12.6699C330 12.6699 330 93.8399 396 93.8399C462 93.8399 462 12.6699 528 12.6699C594 12.6699 594 93.8399 660 93.8399C726 93.8399 726 12.6699 792 12.6699C858 12.6699 858 93.8399 924 93.8399C990 93.8399 990 12.6699 1056 12.6699C1122 12.6699 1122 93.8399 1188 93.8399C1254 93.8399 1254 12.6699 1320 12.6699" stroke="#053039" stroke-width="25.34" stroke-miterlimit="10"/>
<path d="M1319.25 12.6699C1385.25 12.6699 1385.25 93.8399 1451.25 93.8399C1517.25 93.8399 1517.25 12.6699 1583.25 12.6699" stroke="#053039" stroke-width="25.34" stroke-miterlimit="10"/>
</svg>
