<svg width="1584" height="114" viewBox="0 0 1584 114" fill="none" xmlns="http://www.w3.org/2000/svg">
<path d="M0 16.6699C66 16.6699 66 97.8399 132 97.8399C198 97.8399 198 16.6699 264 16.6699C330 16.6699 330 97.8399 396 97.8399C462 97.8399 462 16.6699 528 16.6699C594 16.6699 594 97.8399 660 97.8399C726 97.8399 726 16.6699 792 16.6699C858 16.6699 858 97.8399 924 97.8399C990 97.8399 990 16.6699 1056 16.6699C1122 16.6699 1122 97.8399 1188 97.8399C1254 97.8399 1254 16.6699 1320 16.6699C1386 16.6699 1386 97.8399 1452 97.8399C1518 97.8399 1518 16.6699 1584 16.6699" stroke="#053039" stroke-width="32" stroke-miterlimit="10"/>
</svg>
