<svg width="114" height="1585" viewBox="0 0 114 1585" fill="none" xmlns="http://www.w3.org/2000/svg" preserveAspectRatio="none">
<path d="M97.585 0.254883C97.585 66.2549 16.415 66.2549 16.415 132.255C16.415 198.255 97.585 198.255 97.585 264.255C97.585 330.255 16.415 330.255 16.415 396.255C16.415 462.255 97.585 462.255 97.585 528.255C97.585 594.255 16.415 594.255 16.415 660.255C16.415 726.255 97.585 726.255 97.585 792.255C97.585 858.255 16.415 858.255 16.415 924.255C16.415 990.255 97.585 990.255 97.585 1056.25C97.585 1122.25 16.415 1122.25 16.415 1188.25C16.415 1254.25 97.585 1254.25 97.585 1320.25C97.585 1386.25 16.415 1386.25 16.415 1452.25C16.415 1518.25 97.585 1518.25 97.585 1584.25" stroke="#053039" stroke-width="32" stroke-miterlimit="10"/>
</svg>
