<svg width="114" height="1584" viewBox="0 0 114 1584" fill="none" xmlns="http://www.w3.org/2000/svg" preserveAspectRatio='none'>
<g clip-path="url(#clip0_760_8)">
<path d="M97.1698 264C97.1698 330 15.9998 330 15.9998 396C15.9998 462 97.1698 462 97.1698 528C97.1698 594 15.9998 594 15.9998 660C15.9998 726 97.1698 726 97.1698 792C97.1698 858 15.9998 858 15.9998 924C15.9998 990 97.1698 990 97.1698 1056C97.1698 1122 15.9998 1122 15.9998 1188C15.9998 1254 97.1698 1254 97.1698 1320C97.1698 1386 15.9998 1386 15.9998 1452C15.9998 1518 97.1698 1518 97.1698 1584M97.17 0.5C97.17 66.5 16 66.5 16 132.5C16 198.5 97.17 198.5 97.17 264.5" stroke="#053039" stroke-width="32" stroke-miterlimit="10"/>
</g>
<defs>
<clipPath id="clip0_760_8">
<rect width="114" height="1584" fill="white"/>
</clipPath>
</defs>
</svg>
