<svg xmlns="http://www.w3.org/2000/svg" xmlns:xlink="http://www.w3.org/1999/xlink" viewBox="0 0 513.34 321.71"><defs><style>.cls-1{fill:url(#linear-gradient);}.cls-2{fill:url(#linear-gradient-2);}.cls-3{fill:#59ccd2;}.cls-4{fill:#7cf6f6;}.cls-5{fill:#40a7a7;}.cls-6{fill:#1a929e;}.cls-7{fill:url(#radial-gradient);}.cls-8{isolation:isolate;}.cls-9{clip-path:url(#clip-path);}.cls-10{clip-path:url(#clip-path-2);}.cls-11{fill:url(#radial-gradient-2);}.cls-12{fill:url(#linear-gradient-6);}.cls-13{fill:url(#linear-gradient-7);}.cls-14{fill:url(#radial-gradient-3);}.cls-15{fill:#faf2bb;}.cls-16{fill:url(#radial-gradient-4);}.cls-17{fill:url(#radial-gradient-5);}.cls-18{fill:url(#radial-gradient-6);}.cls-19{fill:url(#radial-gradient-7);}.cls-20{fill:url(#radial-gradient-8);}.cls-21{fill:url(#radial-gradient-9);}.cls-22{fill:url(#radial-gradient-10);}.cls-23{fill:url(#radial-gradient-11);}.cls-24{fill:url(#radial-gradient-12);}.cls-25{fill:url(#radial-gradient-13);}.cls-26{fill:url(#radial-gradient-14);}.cls-27{fill:url(#radial-gradient-15);}.cls-28{fill:url(#radial-gradient-16);}.cls-29{fill:url(#radial-gradient-17);}.cls-30{fill:url(#radial-gradient-18);}.cls-31{fill:url(#radial-gradient-19);}.cls-32{fill:url(#radial-gradient-20);}.cls-33{fill:url(#radial-gradient-21);}.cls-34{fill:url(#radial-gradient-22);}.cls-35{fill:#053039;}</style><linearGradient id="linear-gradient" x1="-397.27" y1="317.13" x2="-395.74" y2="198.12" gradientTransform="matrix(-1, 0, 0, 1, -336.18, 0)" gradientUnits="userSpaceOnUse"><stop offset="0" stop-color="#fad146"/><stop offset="1" stop-color="#fbf9d8"/></linearGradient><linearGradient id="linear-gradient-2" x1="-424.61" y1="316.78" x2="-423.08" y2="198.12" gradientTransform="matrix(-1, 0, 0, 1, -336.18, 0)" gradientUnits="userSpaceOnUse"><stop offset="0" stop-color="#fb9f28"/><stop offset="0.17" stop-color="#fbc638"/><stop offset="0.39" stop-color="#fbb62b"/><stop offset="0.73" stop-color="#fad655"/><stop offset="1" stop-color="#fbf9d8"/></linearGradient><radialGradient id="radial-gradient" cx="-389.41" cy="260.78" r="56.01" gradientTransform="matrix(-1, 0, 0, 1, -336.18, 0)" gradientUnits="userSpaceOnUse"><stop offset="0" stop-color="#a1ecd2"/><stop offset="0.46" stop-color="#9fecd2"/><stop offset="0.63" stop-color="#98ecd2"/><stop offset="0.75" stop-color="#8decd2"/><stop offset="0.84" stop-color="#7cecd2"/><stop offset="0.92" stop-color="#66ecd2"/><stop offset="0.99" stop-color="#4becd2"/><stop offset="1" stop-color="#49ecd2"/></radialGradient><clipPath id="clip-path"><path class="cls-1" d="M54.67,318.6l14.3-.34H67.53l-14.3.34h1.44Z"/></clipPath><clipPath id="clip-path-2"><path class="cls-2" d="M54.83,321.7l14.3-.36a47.5,47.5,0,0,0,20.29-5.18A54.22,54.22,0,0,0,106,302.92a63.19,63.19,0,0,0,11.2-19.44,70.65,70.65,0,0,0,0-47.49A63.24,63.24,0,0,0,106,216.54a54,54,0,0,0-16.61-13.23,47.22,47.22,0,0,0-20.29-5.18l-.72,0L62,197.94l-7.17-.18A47.64,47.64,0,0,1,75.21,203a54.26,54.26,0,0,1,16.66,13.32,63.28,63.28,0,0,1,11.25,19.56,71.13,71.13,0,0,1,0,47.77,63.51,63.51,0,0,1-11.25,19.56,54.23,54.23,0,0,1-16.66,13.31A47.6,47.6,0,0,1,54.83,321.7Z"/></clipPath><radialGradient id="radial-gradient-2" cx="-424.27" cy="259.73" r="49.73" gradientTransform="matrix(-1, 0, 0, 1, -336.18, 0)" gradientUnits="userSpaceOnUse"><stop offset="0" stop-color="#c0ecd2"/><stop offset="0.43" stop-color="#beecd2"/><stop offset="0.59" stop-color="#b7ecd2"/><stop offset="0.7" stop-color="#acecd2"/><stop offset="0.79" stop-color="#9becd2"/><stop offset="0.87" stop-color="#85ecd2"/><stop offset="0.94" stop-color="#6aecd2"/><stop offset="1" stop-color="#4becd2"/><stop offset="1" stop-color="#49ecd2"/></radialGradient><linearGradient id="linear-gradient-6" x1="-390.78" y1="200.3" x2="-388.77" y2="323.17" gradientTransform="matrix(-1, 0, 0, 1, -336.18, 0)" gradientUnits="userSpaceOnUse"><stop offset="0" stop-color="#6ebfd2"/><stop offset="1" stop-color="#6ba288"/></linearGradient><linearGradient id="linear-gradient-7" x1="-363.94" y1="308.17" x2="-364.52" y2="205.68" gradientTransform="matrix(-1, 0, 0, 1, -336.18, 0)" gradientUnits="userSpaceOnUse"><stop offset="0" stop-color="#79edd2"/><stop offset="0.47" stop-color="#fff"/><stop offset="1" stop-color="#80edd2"/></linearGradient><radialGradient id="radial-gradient-3" cx="114.5" cy="259.66" r="4.63" gradientTransform="matrix(1, 0, 0, 1, 0, 0)" xlink:href="#radial-gradient"/><radialGradient id="radial-gradient-4" cx="113.92" cy="267.84" r="4.63" gradientTransform="matrix(1, 0, 0, 1, 0, 0)" xlink:href="#radial-gradient"/><radialGradient id="radial-gradient-5" cx="111.97" cy="276.38" r="4.37" gradientTransform="matrix(1, 0, 0, 1, 0, 0)" xlink:href="#radial-gradient"/><radialGradient id="radial-gradient-6" cx="109.67" cy="284.57" r="4.36" gradientTransform="matrix(1, 0, 0, 1, 0, 0)" xlink:href="#radial-gradient"/><radialGradient id="radial-gradient-7" cx="106.54" cy="292.47" r="4.69" gradientTransform="matrix(1, 0, 0, 1, 0, 0)" xlink:href="#radial-gradient"/><radialGradient id="radial-gradient-8" cx="100.4" cy="301.08" r="4.51" gradientTransform="matrix(1, 0, 0, 1, 0, 0)" xlink:href="#radial-gradient"/><radialGradient id="radial-gradient-9" cx="93.51" cy="308.46" r="4.1" gradientTransform="matrix(1, 0, 0, 1, 0, 0)" xlink:href="#radial-gradient"/><radialGradient id="radial-gradient-10" cx="85.08" cy="314.46" r="4.23" gradientTransform="matrix(1, 0, 0, 1, 0, 0)" xlink:href="#radial-gradient"/><radialGradient id="radial-gradient-11" cx="74.91" cy="318.71" r="3.64" gradientTransform="matrix(1, 0, 0, 1, 0, 0)" xlink:href="#radial-gradient"/><radialGradient id="radial-gradient-12" cx="66.87" cy="320.34" r="2.31" gradientTransform="matrix(1, 0, 0, 1, 0, 0)" xlink:href="#radial-gradient"/><radialGradient id="radial-gradient-13" cx="113.85" cy="251.55" r="4.63" gradientTransform="matrix(1, 0, 0, 1, 0, 0)" xlink:href="#radial-gradient"/><radialGradient id="radial-gradient-14" cx="112.56" cy="243.66" r="4.63" gradientTransform="matrix(1, 0, 0, 1, 0, 0)" xlink:href="#radial-gradient"/><radialGradient id="radial-gradient-15" cx="110.88" cy="237.21" r="4.56" gradientTransform="matrix(1, 0, 0, 1, 0, 0)" xlink:href="#radial-gradient"/><radialGradient id="radial-gradient-16" cx="108.4" cy="230.33" r="4.53" gradientTransform="matrix(1, 0, 0, 1, 0, 0)" xlink:href="#radial-gradient"/><radialGradient id="radial-gradient-17" cx="104.13" cy="223" r="4.56" gradientTransform="matrix(1, 0, 0, 1, 0, 0)" xlink:href="#radial-gradient"/><radialGradient id="radial-gradient-18" cx="99.18" cy="216.53" r="4.1" gradientTransform="matrix(1, 0, 0, 1, 0, 0)" xlink:href="#radial-gradient"/><radialGradient id="radial-gradient-19" cx="93.25" cy="210.45" r="4.1" gradientTransform="matrix(1, 0, 0, 1, 0, 0)" xlink:href="#radial-gradient"/><radialGradient id="radial-gradient-20" cx="86.69" cy="205.33" r="4.1" gradientTransform="matrix(1, 0, 0, 1, 0, 0)" xlink:href="#radial-gradient"/><radialGradient id="radial-gradient-21" cx="80.29" cy="201.96" r="3.84" gradientTransform="matrix(1, 0, 0, 1, 0, 0)" xlink:href="#radial-gradient"/><radialGradient id="radial-gradient-22" cx="72.83" cy="199.45" r="3.53" gradientTransform="matrix(1, 0, 0, 1, 0, 0)" xlink:href="#radial-gradient"/></defs><g id="Layer_2" data-name="Layer 2"><g id="Layer_1-2" data-name="Layer 1"><rect class="cls-3" x="82.16" y="297.81" width="43.91" height="18.54"/><polygon class="cls-4" points="82.16 297.81 93.89 294.57 132.8 294.57 126.07 297.81 82.16 297.81"/><polygon class="cls-5" points="132.8 294.57 132.8 310.67 126.07 316.35 126.07 297.81 132.8 294.57"/><rect class="cls-3" x="145.58" y="282.5" width="43.91" height="33.85"/><polygon class="cls-4" points="145.58 282.5 157.32 279.27 196.22 279.27 189.49 282.5 145.58 282.5"/><polygon class="cls-5" points="196.22 279.27 196.22 310.67 189.49 316.35 189.49 282.5 196.22 279.27"/><rect class="cls-3" x="209.01" y="250.79" width="43.91" height="65.56"/><polygon class="cls-4" points="209.01 250.79 220.74 247.56 259.65 247.56 252.91 250.79 209.01 250.79"/><polygon class="cls-5" points="259.65 247.56 259.65 310.67 252.91 316.35 252.91 250.79 259.65 247.56"/><rect class="cls-3" x="272.43" y="219.08" width="43.91" height="97.27"/><polygon class="cls-4" points="272.43 219.08 284.16 215.84 323.07 215.84 316.34 219.08 272.43 219.08"/><polygon class="cls-5" points="323.07 215.84 323.07 310.67 316.34 316.35 316.34 219.08 323.07 215.84"/><rect class="cls-3" x="335.85" y="182" width="43.91" height="134.35"/><polygon class="cls-4" points="335.85 182 347.59 178.76 386.49 178.76 379.76 182 335.85 182"/><polygon class="cls-5" points="386.49 178.76 386.49 310.67 379.76 316.35 379.76 182 386.49 178.76"/><rect class="cls-3" x="399.28" y="136.14" width="43.91" height="180.21"/><polygon class="cls-4" points="399.28 136.14 411.01 132.91 449.92 132.91 443.19 136.14 399.28 136.14"/><polygon class="cls-5" points="449.92 132.91 449.92 310.67 443.19 316.35 443.19 136.14 449.92 132.91"/><rect class="cls-3" x="462.7" y="84.42" width="43.91" height="231.92"/><polygon class="cls-4" points="462.7 84.42 474.43 81.19 513.34 81.19 506.61 84.42 462.7 84.42"/><polygon class="cls-5" points="513.34 81.19 513.34 310.67 506.61 316.35 506.61 84.42 513.34 81.19"/><path class="cls-6" d="M440.14,1.28,398.28,23.12,356.41,45a11.11,11.11,0,0,0-.82,19.23l18.74,11.91c-20.83,28.43-69.44,86.16-140.95,119.09C135.9,240.1,85.07,223.25,88.64,235.38c2.22,7.53,66.46,12.4,167.19-20.68,88.45-29,141-92.16,157.12-114l22.34,14.2a11.11,11.11,0,0,0,17.07-8.9l2-47.18,2-47.18A11.11,11.11,0,0,0,440.14,1.28Z"/><path class="cls-7" d="M1.84,260.79c0,33.29,23,60.28,51.39,60.28s51.39-27,51.39-60.28-23-60.29-51.39-60.29S1.84,227.49,1.84,260.79Z"/><g class="cls-8"><g class="cls-8"><path class="cls-1" d="M54.67,318.6l14.3-.34H67.53l-14.3.34h1.44Z"/><g class="cls-9"><g class="cls-8"><path class="cls-1" d="M54.67,318.6l14.3-.34H67.53l-14.3.34h1.44Z"/></g></g></g><g class="cls-8"><path class="cls-2" d="M54.83,321.7l14.3-.36a47.5,47.5,0,0,0,20.29-5.18A54.22,54.22,0,0,0,106,302.92a63.19,63.19,0,0,0,11.2-19.44,70.65,70.65,0,0,0,0-47.49A63.24,63.24,0,0,0,106,216.54a54,54,0,0,0-16.61-13.23,47.22,47.22,0,0,0-20.29-5.18l-.72,0L62,197.94l-7.17-.18A47.64,47.64,0,0,1,75.21,203a54.26,54.26,0,0,1,16.66,13.32,63.28,63.28,0,0,1,11.25,19.56,71.13,71.13,0,0,1,0,47.77,63.51,63.51,0,0,1-11.25,19.56,54.23,54.23,0,0,1-16.66,13.31A47.6,47.6,0,0,1,54.83,321.7Z"/><g class="cls-10"><path class="cls-11" d="M91.87,303.18a63.51,63.51,0,0,0,11.25-19.56,70.18,70.18,0,0,0,4.13-23.89c0-1.94-.08-3.86-.23-5.76s-.38-3.76-.67-5.61-.66-3.65-1.09-5.44-.94-3.53-1.5-5.24-1.18-3.35-1.86-5-1.42-3.2-2.21-4.74-1.65-3-2.55-4.47-1.86-2.84-2.86-4.19a57.28,57.28,0,0,0-8-8.76,52.55,52.55,0,0,0-9.43-6.71,48.55,48.55,0,0,0-10.57-4.36,46.72,46.72,0,0,0-11.43-1.72l14.3.37a46.46,46.46,0,0,1,11.39,1.7,49.09,49.09,0,0,1,10.53,4.34,52.54,52.54,0,0,1,9.39,6.67,57.65,57.65,0,0,1,8,8.71c1,1.34,2,2.73,2.85,4.16s1.75,2.92,2.54,4.45,1.53,3.1,2.2,4.71,1.3,3.26,1.85,4.94,1.06,3.44,1.49,5.21.8,3.58,1.1,5.41.51,3.69.67,5.58.22,3.79.22,5.72a69.65,69.65,0,0,1-4.11,23.75A63.19,63.19,0,0,1,106,302.92a54.22,54.22,0,0,1-16.61,13.24,47.5,47.5,0,0,1-20.29,5.18l-14.3.36a47.64,47.64,0,0,0,20.38-5.21A54.23,54.23,0,0,0,91.87,303.18Z"/></g></g><path class="cls-12" d="M74.16,202.46a53.78,53.78,0,0,1,17.18,13.21A63.4,63.4,0,0,1,103,235.44,71.22,71.22,0,0,1,103,284a63.17,63.17,0,0,1-11.64,19.77A54,54,0,0,1,74.16,317a47.22,47.22,0,0,1-41.75-.33A54.23,54.23,0,0,1,15.5,303.33,63.67,63.67,0,0,1,4.15,283.7a71.27,71.27,0,0,1,0-47.93A63.61,63.61,0,0,1,15.5,216.13a54.37,54.37,0,0,1,16.91-13.35,47.17,47.17,0,0,1,41.75-.32ZM53.23,318.61a44.83,44.83,0,0,0,19.88-4.48,51.07,51.07,0,0,0,16.32-12.56,60.23,60.23,0,0,0,11-18.77,67.57,67.57,0,0,0,0-46.14,60.23,60.23,0,0,0-11-18.77,51.21,51.21,0,0,0-16.32-12.56,44.82,44.82,0,0,0-39.66.29A51.51,51.51,0,0,0,17.39,218.3,60.18,60.18,0,0,0,6.59,237a67.6,67.6,0,0,0,0,45.54,60.07,60.07,0,0,0,10.8,18.66,51.37,51.37,0,0,0,16.06,12.68,44.92,44.92,0,0,0,19.78,4.77Z"/><path class="cls-13" d="M6.27,271.57q.41,2.58,1,5.07c.4,1.66.86,3.3,1.38,4.89s1.08,3.14,1.71,4.65,1.31,3,2,4.43,1.52,2.84,2.35,4.2,1.72,2.67,2.65,3.94a54.24,54.24,0,0,0,7.72,8.53,49.94,49.94,0,0,0,9.14,6.52,45.82,45.82,0,0,0,6.26,2.86,46,46,0,0,1-7.08-2.82,51.37,51.37,0,0,1-16.06-12.68A60.07,60.07,0,0,1,6.59,282.5a67.6,67.6,0,0,1,0-45.54,60.18,60.18,0,0,1,10.8-18.66,51.51,51.51,0,0,1,16.06-12.68,45.2,45.2,0,0,1,19.78-4.77h.52c-6.24.62-12.89,3.18-18.32,5.88-6,3-10.75,7.76-15.3,13.06A60,60,0,0,0,9.38,238.35,66,66,0,0,0,5.44,261c0,1.81.07,3.59.21,5.36S6,269.86,6.27,271.57Z"/><path class="cls-14" d="M121,260.05a27,27,0,0,0-6.9-.8,21.71,21.71,0,0,0-6.17.82Z"/><path class="cls-15" d="M121,260.05a24.39,24.39,0,0,1-6.85.88,21.71,21.71,0,0,1-6.17-.82Z"/><path class="cls-16" d="M120.46,268.23a26.85,26.85,0,0,0-6.9-.79,21.44,21.44,0,0,0-6.17.81Z"/><path class="cls-15" d="M120.46,268.23a24,24,0,0,1-6.85.88,22,22,0,0,1-6.18-.81Z"/><path class="cls-17" d="M118.13,276.75a25.44,25.44,0,0,0-6.5-.75,20.68,20.68,0,0,0-5.82.77Z"/><path class="cls-15" d="M118.13,276.75a22.84,22.84,0,0,1-6.45.83,20.72,20.72,0,0,1-5.83-.77Z"/><path class="cls-18" d="M115.83,284.93a25.44,25.44,0,0,0-6.5-.75,20.68,20.68,0,0,0-5.82.77Z"/><path class="cls-15" d="M115.83,284.93a22.87,22.87,0,0,1-6.46.83,20.68,20.68,0,0,1-5.82-.77Z"/><path class="cls-19" d="M113.16,292.87a26.85,26.85,0,0,0-7-.81,22,22,0,0,0-6.26.83Z"/><path class="cls-15" d="M113.16,292.87a24.5,24.5,0,0,1-6.94.88,21.81,21.81,0,0,1-6.25-.82Z"/><path class="cls-20" d="M106.76,301.46a25.92,25.92,0,0,0-6.71-.77,21,21,0,0,0-6,.79Z"/><path class="cls-15" d="M106.76,301.46a23.52,23.52,0,0,1-6.67.86,21.16,21.16,0,0,1-6-.8Z"/><path class="cls-21" d="M99.3,308.81a23.48,23.48,0,0,0-6.11-.7,19.2,19.2,0,0,0-5.47.72Z"/><path class="cls-15" d="M99.3,308.81a21.36,21.36,0,0,1-6.07.78,19.17,19.17,0,0,1-5.46-.72Z"/><path class="cls-22" d="M91.06,314.81a24.36,24.36,0,0,0-6.31-.72,19.88,19.88,0,0,0-5.64.74Z"/><path class="cls-15" d="M91.06,314.81a21.75,21.75,0,0,1-6.26.8,19.91,19.91,0,0,1-5.65-.74Z"/><path class="cls-23" d="M80.05,319a20.78,20.78,0,0,0-5.42-.63,17.24,17.24,0,0,0-4.85.64Z"/><path class="cls-15" d="M80.05,319a19.24,19.24,0,0,1-5.38.69,17.14,17.14,0,0,1-4.85-.64Z"/><path class="cls-24" d="M70.12,320.54a13.39,13.39,0,0,0-3.43-.4,10.57,10.57,0,0,0-3.08.41Z"/><path class="cls-15" d="M70.12,320.54a11.9,11.9,0,0,1-3.41.43,10.84,10.84,0,0,1-3.08-.4Z"/><path class="cls-25" d="M120.39,251.94a27.1,27.1,0,0,0-6.9-.8,21.75,21.75,0,0,0-6.18.82Z"/><path class="cls-15" d="M120.39,251.94a24.39,24.39,0,0,1-6.85.88,21.75,21.75,0,0,1-6.18-.82Z"/><path class="cls-26" d="M119.09,244a26.76,26.76,0,0,0-6.9-.79,22,22,0,0,0-6.17.81Z"/><path class="cls-15" d="M119.09,244a24,24,0,0,1-6.85.88,22,22,0,0,1-6.17-.81Z"/><path class="cls-27" d="M117.32,237.6a26.57,26.57,0,0,0-6.8-.79,21.4,21.4,0,0,0-6.08.81Z"/><path class="cls-15" d="M117.32,237.6a23.68,23.68,0,0,1-6.75.86,21.22,21.22,0,0,1-6.08-.8Z"/><path class="cls-28" d="M114.79,230.71a26.25,26.25,0,0,0-6.75-.77,21.17,21.17,0,0,0-6,.79Z"/><path class="cls-15" d="M114.79,230.71a23.44,23.44,0,0,1-6.7.86,21.17,21.17,0,0,1-6-.79Z"/><path class="cls-29" d="M110.57,223.39a26.44,26.44,0,0,0-6.79-.79,21.31,21.31,0,0,0-6.08.81Z"/><path class="cls-15" d="M110.57,223.39a23.65,23.65,0,0,1-6.74.86,21.71,21.71,0,0,1-6.09-.8Z"/><path class="cls-30" d="M105,216.87a23.79,23.79,0,0,0-6.1-.7,19.2,19.2,0,0,0-5.47.72Z"/><path class="cls-15" d="M105,216.87a21.24,21.24,0,0,1-6.06.78,19.2,19.2,0,0,1-5.47-.72Z"/><path class="cls-31" d="M99,210.8a23.63,23.63,0,0,0-6.11-.71,19.63,19.63,0,0,0-5.46.72Z"/><path class="cls-15" d="M99,210.8a21.13,21.13,0,0,1-6.06.77,19.2,19.2,0,0,1-5.47-.72Z"/><path class="cls-32" d="M92.48,205.68a23.63,23.63,0,0,0-6.11-.71,19.75,19.75,0,0,0-5.47.72Z"/><path class="cls-15" d="M92.48,205.68a21.16,21.16,0,0,1-6.07.77,19.29,19.29,0,0,1-5.47-.72Z"/><path class="cls-33" d="M85.7,202.28a22.06,22.06,0,0,0-5.71-.66,18,18,0,0,0-5.12.68Z"/><path class="cls-15" d="M85.7,202.28A19.81,19.81,0,0,1,80,203a18.14,18.14,0,0,1-5.11-.67Z"/><path class="cls-34" d="M77.82,199.75a20.18,20.18,0,0,0-5.27-.61,16.39,16.39,0,0,0-4.71.62Z"/><path class="cls-15" d="M77.82,199.75a18.48,18.48,0,0,1-5.23.68,16.48,16.48,0,0,1-4.71-.63Z"/></g><path class="cls-35" d="M42.25,266.5A17.5,17.5,0,0,0,59.84,284c4.25,0,10.33-2.15,15.51-7.49a3.55,3.55,0,0,1,2.53-1.12c2.14,0,3.87,2.07,3.87,4.63a5.22,5.22,0,0,1-1.11,3.27,19.22,19.22,0,0,1-1.85,1.87,26.79,26.79,0,0,1-17.64,7.15c-7.91,0-14.56-2.95-19.23-8.54a30.12,30.12,0,0,1-6.66-18.44c0-5.86,1.76-11.34,4.84-15a11.09,11.09,0,0,1,8.41-4.39A10.84,10.84,0,0,1,56.92,250a13.19,13.19,0,0,1,1.58,2.39,6.7,6.7,0,0,0-4.16-1.34C47.67,251.06,42.25,258,42.25,266.5Z"/><path class="cls-35" d="M48.51,244.33c-3.43,0-6.76,1.73-9.38,4.88-3.34,4-5.25,9.89-5.25,16.19A33.48,33.48,0,0,0,40.13,284a5.22,5.22,0,0,1,.94,3c0,2.56-1.73,4.64-3.87,4.64a3.61,3.61,0,0,1-2.73-1.34,19.85,19.85,0,0,1-1.56-2.21c-5.54-8.61-6-18.34-6-21.12,0-9.47,2.47-17.43,7.13-23,4.92-5.88,11.18-8,15.4-8A16.26,16.26,0,0,1,62,241.76a16.1,16.1,0,0,1,.27,20.13,11.88,11.88,0,0,1-2,1.9,10.5,10.5,0,0,0,1.12-5C61.41,250.82,55.62,244.33,48.51,244.33Z"/><path class="cls-35" d="M67,251.83a17.5,17.5,0,0,0-17.6-17.52c-4.25,0-10.32,2.15-15.5,7.48a3.54,3.54,0,0,1-2.53,1.13c-2.14,0-3.88-2.07-3.88-4.64A5.22,5.22,0,0,1,28.64,235a20.32,20.32,0,0,1,1.84-1.87A26.83,26.83,0,0,1,48.13,226c7.91,0,14.56,2.95,19.22,8.54A30.07,30.07,0,0,1,74,253c0,5.87-1.76,11.35-4.84,15a11.1,11.1,0,0,1-8.42,4.39,10.87,10.87,0,0,1-8.4-4.07,13,13,0,0,1-1.58-2.39,6.7,6.7,0,0,0,4.16,1.34C61.61,267.27,67,260.34,67,251.83Z"/><path class="cls-35" d="M60.76,274c3.43,0,6.77-1.73,9.39-4.88,3.34-4,5.25-9.89,5.25-16.19a33.46,33.46,0,0,0-6.25-18.56,5.15,5.15,0,0,1-.94-3c0-2.56,1.73-4.64,3.87-4.64A3.58,3.58,0,0,1,74.8,228a20.76,20.76,0,0,1,1.57,2.2c5.54,8.62,6,18.35,6,21.13,0,9.47-2.47,17.43-7.13,23-4.92,5.88-11.18,8-15.4,8a16.26,16.26,0,0,1-12.55-5.8A16.11,16.11,0,0,1,47,256.43a12.22,12.22,0,0,1,2-1.89,10.5,10.5,0,0,0-1.12,5C47.87,267.5,53.65,274,60.76,274Z"/></g></g></svg>