<svg xmlns="http://www.w3.org/2000/svg" xmlns:xlink="http://www.w3.org/1999/xlink" viewBox="0 0 846.73 575.43"><defs><style>.cls-1{fill:none;clip-rule:evenodd;}.cls-2{fill:url(#linear-gradient);}.cls-3{fill:url(#linear-gradient-2);}.cls-4{fill:#572e1e;}.cls-10,.cls-11,.cls-12,.cls-13,.cls-14,.cls-15,.cls-16,.cls-17,.cls-18,.cls-19,.cls-4,.cls-5,.cls-6,.cls-7,.cls-8,.cls-9{fill-rule:evenodd;}.cls-5{fill:#4a2a1d;}.cls-6{fill:#663a2a;}.cls-7{fill:#b6845c;}.cls-8{fill:#d99e6b;}.cls-9{fill:#d5ca6f;}.cls-10{fill:#8c5530;}.cls-11{fill:#ca9264;}.cls-12{fill:#894523;}.cls-13{fill:#dec16d;}.cls-14{fill:#764324;}.cls-15{fill:#e7de7b;}.cls-16{fill:#bb592d;}.cls-17{fill:#573628;}.cls-18{opacity:0.2;}.cls-19{opacity:0.05;}.cls-20{clip-path:url(#clip-path);}.cls-21{fill:url(#radial-gradient);}.cls-22{isolation:isolate;}.cls-23{clip-path:url(#clip-path-2);}.cls-24{clip-path:url(#clip-path-3);}.cls-25{fill:url(#radial-gradient-2);}.cls-26{fill:url(#linear-gradient-6);}.cls-27{fill:url(#linear-gradient-7);}.cls-28{fill:url(#radial-gradient-3);}.cls-29{fill:#f9f2b7;}.cls-30{fill:url(#radial-gradient-4);}.cls-31{fill:url(#radial-gradient-5);}.cls-32{fill:url(#radial-gradient-6);}.cls-33{fill:url(#radial-gradient-7);}.cls-34{fill:url(#radial-gradient-8);}.cls-35{fill:url(#radial-gradient-9);}.cls-36{fill:url(#radial-gradient-10);}.cls-37{fill:url(#radial-gradient-11);}.cls-38{fill:url(#radial-gradient-12);}.cls-39{fill:url(#radial-gradient-13);}.cls-40{fill:url(#radial-gradient-14);}.cls-41{fill:url(#radial-gradient-15);}.cls-42{fill:url(#radial-gradient-16);}.cls-43{fill:url(#radial-gradient-17);}.cls-44{fill:url(#radial-gradient-18);}.cls-45{fill:url(#radial-gradient-19);}.cls-46{fill:url(#radial-gradient-20);}.cls-47{fill:url(#radial-gradient-21);}.cls-48{fill:url(#radial-gradient-22);}.cls-49{fill:#02303a;}</style><linearGradient id="linear-gradient" x1="362.4" y1="390.86" x2="365.04" y2="186.08" gradientTransform="matrix(-1, 0, 0, 1, 545.6, 0)" gradientUnits="userSpaceOnUse"><stop offset="0" stop-color="#fad134"/><stop offset="1" stop-color="#faf9d5"/></linearGradient><linearGradient id="linear-gradient-2" x1="315.36" y1="390.26" x2="318" y2="186.08" gradientTransform="matrix(-1, 0, 0, 1, 545.6, 0)" gradientUnits="userSpaceOnUse"><stop offset="0" stop-color="#fc9f02"/><stop offset="0.17" stop-color="#fbc61e"/><stop offset="0.39" stop-color="#fcb600"/><stop offset="0.73" stop-color="#fad647"/><stop offset="1" stop-color="#faf9d5"/></linearGradient><clipPath id="clip-path"><polygon class="cls-1" points="236.92 412.99 55.35 307.43 139.8 100.52 366.41 248.31 236.92 412.99"/></clipPath><radialGradient id="radial-gradient" cx="375.92" cy="293.9" r="96.38" gradientTransform="matrix(-1, 0, 0, 1, 545.6, 0)" gradientUnits="userSpaceOnUse"><stop offset="0" stop-color="#9decd1"/><stop offset="0.45" stop-color="#9becd1"/><stop offset="0.62" stop-color="#94ecd1"/><stop offset="0.73" stop-color="#89ecd1"/><stop offset="0.83" stop-color="#78ecd1"/><stop offset="0.91" stop-color="#62ecd1"/><stop offset="0.98" stop-color="#47ecd1"/><stop offset="1" stop-color="#3decd1"/></radialGradient><clipPath id="clip-path-2"><path class="cls-2" d="M172.17,393.39l24.61-.59H194.3l-24.61.59h1.86Z"/></clipPath><clipPath id="clip-path-3"><path class="cls-3" d="M172.44,398.72l24.6-.62A81.68,81.68,0,0,0,232,389.19a93.13,93.13,0,0,0,28.56-22.78A108.61,108.61,0,0,0,279.82,333a121.77,121.77,0,0,0,0-81.72,108.85,108.85,0,0,0-19.29-33.46A93.09,93.09,0,0,0,232,195,81.4,81.4,0,0,0,197,186.09l-1.23,0-11-.28-12.33-.32a81.56,81.56,0,0,1,35.06,9,93.34,93.34,0,0,1,28.68,22.91A109.31,109.31,0,0,1,255.54,251a122.51,122.51,0,0,1,0,82.2,109.48,109.48,0,0,1-19.36,33.66,93.48,93.48,0,0,1-28.68,22.91A81.65,81.65,0,0,1,172.44,398.72Z"/></clipPath><radialGradient id="radial-gradient-2" cx="315.94" cy="292.09" r="85.57" gradientTransform="matrix(-1, 0, 0, 1, 545.6, 0)" gradientUnits="userSpaceOnUse"><stop offset="0" stop-color="#beecd0"/><stop offset="0.43" stop-color="#bcecd0"/><stop offset="0.58" stop-color="#b5ecd0"/><stop offset="0.69" stop-color="#aaecd0"/><stop offset="0.78" stop-color="#99ecd0"/><stop offset="0.86" stop-color="#83ecd0"/><stop offset="0.92" stop-color="#67ecd1"/><stop offset="0.98" stop-color="#48ecd1"/><stop offset="1" stop-color="#3decd1"/></radialGradient><linearGradient id="linear-gradient-6" x1="373.56" y1="189.84" x2="377.02" y2="401.26" gradientTransform="matrix(-1, 0, 0, 1, 545.6, 0)" gradientUnits="userSpaceOnUse"><stop offset="0" stop-color="#6bbed2"/><stop offset="1" stop-color="#69a286"/></linearGradient><linearGradient id="linear-gradient-7" x1="419.75" y1="375.44" x2="418.76" y2="199.09" gradientTransform="matrix(-1, 0, 0, 1, 545.6, 0)" gradientUnits="userSpaceOnUse"><stop offset="0" stop-color="#74edd1"/><stop offset="0.47" stop-color="#fff"/><stop offset="1" stop-color="#7bedd1"/></linearGradient><radialGradient id="radial-gradient-3" cx="275.11" cy="291.97" r="7.97" gradientTransform="matrix(1, 0, 0, 1, 0, 0)" xlink:href="#radial-gradient"/><radialGradient id="radial-gradient-4" cx="274.12" cy="306.05" r="7.97" gradientTransform="matrix(1, 0, 0, 1, 0, 0)" xlink:href="#radial-gradient"/><radialGradient id="radial-gradient-5" cx="270.76" cy="320.75" r="7.51" gradientTransform="matrix(1, 0, 0, 1, 0, 0)" xlink:href="#radial-gradient"/><radialGradient id="radial-gradient-6" cx="266.8" cy="334.82" r="7.51" gradientTransform="matrix(1, 0, 0, 1, 0, 0)" xlink:href="#radial-gradient"/><radialGradient id="radial-gradient-7" cx="261.42" cy="348.43" r="8.07" gradientTransform="matrix(1, 0, 0, 1, 0, 0)" xlink:href="#radial-gradient"/><radialGradient id="radial-gradient-8" cx="250.85" cy="363.25" r="7.76" gradientTransform="matrix(1, 0, 0, 1, 0, 0)" xlink:href="#radial-gradient"/><radialGradient id="radial-gradient-9" cx="238.99" cy="375.95" r="7.06" gradientTransform="matrix(1, 0, 0, 1, 0, 0)" xlink:href="#radial-gradient"/><radialGradient id="radial-gradient-10" cx="224.49" cy="386.26" r="7.29" gradientTransform="matrix(1, 0, 0, 1, 0, 0)" xlink:href="#radial-gradient"/><radialGradient id="radial-gradient-11" cx="207" cy="393.58" r="6.26" gradientTransform="matrix(1, 0, 0, 1, 0, 0)" xlink:href="#radial-gradient"/><radialGradient id="radial-gradient-12" cx="193.15" cy="396.39" r="3.97" gradientTransform="matrix(1, 0, 0, 1, 0, 0)" xlink:href="#radial-gradient"/><radialGradient id="radial-gradient-13" cx="274" cy="278.01" r="7.97" gradientTransform="matrix(1, 0, 0, 1, 0, 0)" xlink:href="#radial-gradient"/><radialGradient id="radial-gradient-14" cx="271.77" cy="264.43" r="7.97" gradientTransform="matrix(1, 0, 0, 1, 0, 0)" xlink:href="#radial-gradient"/><radialGradient id="radial-gradient-15" cx="268.89" cy="253.35" r="7.85" gradientTransform="matrix(1, 0, 0, 1, 0, 0)" xlink:href="#radial-gradient"/><radialGradient id="radial-gradient-16" cx="264.61" cy="241.51" r="7.8" gradientTransform="matrix(1, 0, 0, 1, 0, 0)" xlink:href="#radial-gradient"/><radialGradient id="radial-gradient-17" cx="257.28" cy="228.9" r="7.85" gradientTransform="matrix(1, 0, 0, 1, 0, 0)" xlink:href="#radial-gradient"/><radialGradient id="radial-gradient-18" cx="248.75" cy="217.75" r="7.06" gradientTransform="matrix(1, 0, 0, 1, 0, 0)" xlink:href="#radial-gradient"/><radialGradient id="radial-gradient-19" cx="238.54" cy="207.3" r="7.06" gradientTransform="matrix(1, 0, 0, 1, 0, 0)" xlink:href="#radial-gradient"/><radialGradient id="radial-gradient-20" cx="227.26" cy="198.49" r="7.06" gradientTransform="matrix(1, 0, 0, 1, 0, 0)" xlink:href="#radial-gradient"/><radialGradient id="radial-gradient-21" cx="216.25" cy="192.68" r="6.6" gradientTransform="matrix(1, 0, 0, 1, 0, 0)" xlink:href="#radial-gradient"/><radialGradient id="radial-gradient-22" cx="203.41" cy="188.36" r="6.08" gradientTransform="matrix(1, 0, 0, 1, 0, 0)" xlink:href="#radial-gradient"/></defs><g id="Layer_2" data-name="Layer 2"><g id="Layer_1-2" data-name="Layer 1"><polygon class="cls-4" points="269.7 426.27 281.94 433.34 281.94 471.57 269.7 464.51 269.7 426.27"/><polygon class="cls-5" points="294.17 426.27 294.17 464.51 281.94 471.57 281.94 433.34 294.17 426.27"/><polygon class="cls-6" points="269.7 426.27 281.94 419.21 294.17 426.27 281.94 433.34 269.7 426.27"/><polygon class="cls-6" points="328.67 416.34 340.9 423.41 294.17 450.38 294.17 436.26 328.67 416.34"/><polygon class="cls-5" points="294.17 450.38 340.9 423.41 340.9 437.53 294.17 464.51 294.17 450.38"/><polygon class="cls-4" points="340.9 399.29 340.9 423.41 328.67 416.34 328.67 392.23 340.9 399.29"/><polygon class="cls-5" points="340.9 399.29 353.13 392.23 353.13 430.47 340.9 437.53 340.9 399.29"/><polygon class="cls-6" points="328.67 392.23 340.9 385.17 353.13 392.23 340.9 399.29 328.67 392.23"/><polygon class="cls-7" points="420.59 276.24 451.13 242.91 451.13 174.75 420.59 176.68 420.59 134.19 484.74 130.13 484.74 248.71 420.59 318.73 420.59 276.24"/><polygon class="cls-8" points="433.44 175.86 451.13 174.75 451.13 242.91 433.44 232.7 433.44 175.86"/><polygon class="cls-9" points="449.36 109.7 484.74 130.13 420.59 134.19 385.21 113.76 449.36 109.7"/><polygon class="cls-10" points="241.23 132.59 241.23 120.42 254.83 128.28 268.2 120.56 312.21 145.96 319.21 141.91 363.21 167.31 363.21 203.02 241.23 132.59"/><polygon class="cls-7" points="230.58 24.48 294.73 20.43 294.73 32.62 288.33 28.92 243.21 31.78 230.58 24.48"/><polygon class="cls-9" points="354.36 54.85 389.74 75.28 325.59 79.33 290.21 58.91 354.36 54.85"/><polygon class="cls-11" points="420.59 276.24 420.59 261.88 420.59 246.72 433.44 232.7 451.13 242.91 420.59 276.24"/><polygon class="cls-9" points="195.21 4.06 259.35 0 294.73 20.43 230.58 24.48 195.21 4.06"/><polygon class="cls-12" points="243.21 31.78 288.33 28.92 335.32 56.06 290.21 58.91 243.21 31.78"/><polygon class="cls-13" points="254.83 79.33 232.82 92.04 181.83 62.59 181.83 196.32 363.21 301.05 363.21 167.31 312.21 137.87 312.21 145.96 268.2 120.56 290.21 107.85 290.21 99.76 385.21 154.61 385.21 339.16 159.82 209.03 159.82 24.48 254.83 79.33"/><path class="cls-13" d="M258.1,101.88c.07,0-6.54,3.85-6.54,3.85S258.1,101.88,258.1,101.88Z"/><polygon class="cls-7" points="325.59 79.33 389.74 75.28 389.74 87.47 383.34 83.78 338.22 86.63 325.59 79.33"/><polygon class="cls-7" points="385.21 154.61 420.59 134.19 420.59 318.73 385.21 339.16 385.21 154.61"/><polygon class="cls-13" points="219.45 107.85 219.45 99.76 254.83 120.19 254.83 128.28 219.45 107.85"/><polygon class="cls-14" points="420.59 176.68 433.44 175.86 433.44 232.7 420.59 246.72 420.59 176.68"/><polygon class="cls-14" points="217.2 158.81 217.2 83.02 232.82 92.04 219.45 99.76 219.45 107.85 241.23 120.42 241.23 132.59 217.2 158.81"/><polygon class="cls-12" points="383.34 83.78 430.33 110.9 385.21 113.76 338.22 86.63 383.34 83.78"/><polygon class="cls-7" points="254.83 120.19 290.21 99.76 290.21 107.85 254.83 128.28 254.83 120.19"/><polygon class="cls-7" points="319.21 141.91 312.21 145.96 312.21 137.87 319.21 141.91"/><polygon class="cls-7" points="258.1 93.78 258.1 101.88 251.49 105.69 244.49 101.65 258.1 93.78"/><polygon class="cls-15" points="195.21 4.06 420.59 134.19 385.21 154.61 159.82 24.48 195.21 4.06"/><polygon class="cls-7" points="217.2 83.02 217.2 175.9 181.83 196.32 181.83 62.59 217.2 83.02"/><path class="cls-15" d="M244.49,101.65l7.07,4.08,13.61-7.86-7.07-4.08Zm10.34-22.32,35.38,20.43-35.38,20.42L219.45,99.76Z"/><polygon class="cls-10" points="217.2 175.9 217.2 158.81 363.21 243.11 363.21 260.2 217.2 175.9"/><path class="cls-13" d="M258.1,93.79l7.07,4.08-7,4C258.1,101.88,258.1,93.79,258.1,93.79Z"/><polygon class="cls-15" points="217.2 175.9 363.21 260.2 363.21 301.05 181.83 196.32 217.2 175.9"/><polygon class="cls-16" points="241.23 132.59 363.21 203.02 363.21 243.11 217.2 158.81 241.23 132.59"/><polygon class="cls-13" points="0 301.3 95.01 356.16 95.01 397.01 0 342.15 0 301.3"/><polygon class="cls-14" points="260.77 504.43 260.77 451.85 269.7 446.7 269.7 464.51 281.94 471.57 341.41 437.23 341.41 457.87 260.77 504.43"/><polygon class="cls-14" points="328.67 412.66 328.67 416.34 294.17 436.26 294.17 432.58 328.67 412.66"/><polygon class="cls-13" points="225.39 534.58 225.39 575.43 0 445.31 0 404.45 225.39 534.58"/><polygon class="cls-7" points="95.01 356.16 102.01 352.11 102.01 392.96 95.01 397.01 95.01 356.16"/><polygon class="cls-7" points="225.39 472.28 225.39 431.43 385.21 339.16 385.21 380.01 353.13 398.53 353.13 392.23 340.9 385.17 328.67 392.23 328.67 412.66 294.17 432.58 294.17 426.27 281.94 419.21 269.7 426.27 269.7 446.7 225.39 472.28"/><polygon class="cls-7" points="225.39 575.43 225.39 534.58 385.21 442.31 385.21 483.16 225.39 575.43"/><polygon class="cls-13" points="130.38 376.58 225.39 431.43 225.39 472.28 130.38 417.43 130.38 376.58"/><polygon class="cls-13" points="102.01 352.11 137.39 372.53 130.38 376.58 130.38 409.34 102.01 392.96 102.01 352.11"/><polygon class="cls-10" points="43.8 367.44 95.01 397.01 95.01 449.58 43.8 420.01 43.8 367.44"/><polygon class="cls-14" points="44.01 301.3 159.82 234.44 159.82 337.58 140.34 348.83 102.01 326.7 95.01 330.75 44.01 301.3"/><polygon class="cls-10" points="159.82 234.44 341.21 339.16 251.88 390.73 159.82 337.58 159.82 234.44"/><polygon class="cls-14" points="174.39 376.58 181.4 372.53 181.4 380.62 174.39 376.58"/><polygon class="cls-7" points="138.81 422.29 138.81 474.87 130.38 479.73 130.38 417.43 138.81 422.29"/><polygon class="cls-13" points="130.38 417.43 130.38 479.73 95.01 459.3 95.01 397.01 130.38 417.43"/><polygon class="cls-15" points="95.01 397.01 102.01 392.96 130.38 409.34 130.38 417.43 95.01 397.01"/><polygon class="cls-15" points="35.38 424.88 43.8 420.01 95.01 449.58 95.01 459.3 35.38 424.88"/><polygon class="cls-7" points="349.83 432.38 353.13 430.47 353.13 421.1 353.13 398.53 385.21 380.01 385.21 442.31 349.83 462.73 349.83 432.38"/><polygon class="cls-13" points="225.39 472.28 225.39 534.58 190.01 514.15 190.01 451.85 225.39 472.28"/><polygon class="cls-7" points="35.38 362.58 43.8 367.44 43.8 420.01 35.38 424.88 35.38 362.58"/><polygon class="cls-15" points="138.81 474.87 190.01 504.43 190.01 514.15 130.38 479.73 138.81 474.87"/><polygon class="cls-13" points="0 342.15 35.38 362.58 35.38 424.88 0 404.45 0 342.15"/><polygon class="cls-17" points="140.34 348.83 159.82 337.58 251.88 390.73 248.57 392.64 225.39 406.03 181.4 380.62 181.4 372.53 140.34 348.83"/><polygon class="cls-8" points="341.41 437.23 345.02 435.15 349.83 432.38 349.83 462.73 341.41 457.87 341.41 437.23"/><polygon class="cls-10" points="138.81 422.29 190.01 451.85 190.01 504.43 138.81 474.87 138.81 422.29"/><polygon class="cls-7" points="225.39 534.58 225.39 472.28 260.77 451.85 260.77 514.15 225.39 534.58"/><path class="cls-15" d="M44,301.3l51,29.45,7-4.05,79.39,45.83-7,4.05,51,29.45,115.82-66.87L159.83,234.44ZM159.83,209,385.21,339.16,225.39,431.43l-95-54.85,7-4.05L102,352.11l-7,4.05L0,301.3Z"/><polygon class="cls-11" points="260.77 504.43 341.41 457.87 349.83 462.73 260.77 514.15 260.77 504.43"/><polygon class="cls-18" points="250.44 35.95 295.56 33.1 288.33 28.92 294.73 32.62 294.73 20.42 230.58 24.48 243.21 31.77 250.44 35.95"/><polygon class="cls-18" points="345.44 90.8 390.56 87.94 389.74 87.47 389.74 75.28 325.58 79.33 338.21 86.63 345.44 90.8"/><path class="cls-18" d="M251.48,105.69l6.61-3.81v-8c0,.89,0,8,.07,8l2.86-1.66-2.93-6.47-13.61,7.86Z"/><path class="cls-19" d="M385.21,339.16,225.38,431.43v144H401.75l159.82-92.27h226L823,462.73l23.76-37-35.38-20.43H792.67l-46-26.55,5.05-7.87-35.38-20.43H697.67l-46-26.55,5.05-7.87-35.38-20.43H476.11l-50.78,18-4.75,5.18,64.16-70V130.13l-64.16,4.05-35.37,20.43Z"/><path class="cls-18" d="M252.58,179.24l48-12.36V159.6l46.05,26.59,4.46,9.86-.26.47,12.33,7.12V167.31l-44-25.4-7-4V146l-1.49-.86L290.2,99.76l-35.37,20.42v8.1l-13.6-7.85-21.78-12.58V99.76L232.82,92,217.2,83,181.82,62.59V196.33h70.76Zm16.9-59.42.9,2,19.11,11-4.68-10.33,2.13,1.22,4.67,10.34,14.19,8.2-37.6-21.71Z"/><polygon class="cls-18" points="109.02 367.6 102.01 352.11 95 356.15 95 397.01 109.02 397.01 109.02 367.6"/><polygon class="cls-18" points="52.22 376.33 95 401.03 95 397.01 43.8 367.44 35.37 362.58 35.37 424.88 52.22 424.88 52.22 376.33"/><polygon class="cls-18" points="102.01 326.7 140.34 348.83 181.39 372.53 174.39 376.58 181.39 380.62 196.49 389.34 222.98 374.05 159.82 234.43 44.01 301.3 95 330.75 102.01 326.7"/><polygon class="cls-18" points="190.01 455.88 190.01 451.85 138.81 422.29 130.38 417.43 130.38 479.72 147.22 479.72 147.22 431.19 190.01 455.88"/><g class="cls-20"><path class="cls-21" d="M81.26,293.91c0,57.29,39.58,103.73,88.42,103.73s88.43-46.44,88.43-103.73-39.6-103.74-88.43-103.74S81.26,236.61,81.26,293.91Z"/><g class="cls-22"><g class="cls-22"><path class="cls-2" d="M172.17,393.39l24.61-.59H194.3l-24.61.59h1.86Z"/><g class="cls-23"><g class="cls-22"><path class="cls-2" d="M172.17,393.39l24.61-.59H194.3l-24.61.59h1.86l.62,0Z"/></g></g></g><g class="cls-22"><path class="cls-3" d="M172.44,398.72l24.6-.62A81.68,81.68,0,0,0,232,389.19a93.13,93.13,0,0,0,28.56-22.78A108.61,108.61,0,0,0,279.82,333a121.77,121.77,0,0,0,0-81.72,108.85,108.85,0,0,0-19.29-33.46A93.09,93.09,0,0,0,232,195,81.4,81.4,0,0,0,197,186.09l-1.23,0-11-.28-12.33-.32a81.56,81.56,0,0,1,35.06,9,93.34,93.34,0,0,1,28.68,22.91A109.31,109.31,0,0,1,255.54,251a122.51,122.51,0,0,1,0,82.2,109.48,109.48,0,0,1-19.36,33.66,93.48,93.48,0,0,1-28.68,22.91A81.65,81.65,0,0,1,172.44,398.72Z"/><g class="cls-24"><path class="cls-25" d="M236.18,366.85a109.48,109.48,0,0,0,19.36-33.66,120.91,120.91,0,0,0,7.1-41.1c0-3.34-.14-6.64-.4-9.9s-.64-6.49-1.15-9.66-1.14-6.29-1.88-9.36-1.61-6.07-2.58-9-2-5.77-3.2-8.56-2.44-5.5-3.81-8.14-2.83-5.21-4.38-7.7-3.2-4.89-4.92-7.21a100.22,100.22,0,0,0-13.79-15.08,91.08,91.08,0,0,0-16.23-11.54,83.71,83.71,0,0,0-18.19-7.5,80.91,80.91,0,0,0-19.67-3l24.6.63A80.48,80.48,0,0,1,216.65,189a83.83,83.83,0,0,1,18.11,7.45A90.39,90.39,0,0,1,250.92,208a99.17,99.17,0,0,1,13.73,15q2.6,3.45,4.91,7.17t4.36,7.65q2.06,3.94,3.79,8.1c1.17,2.77,2.24,5.61,3.19,8.5s1.83,5.93,2.56,9,1.38,6.15,1.89,9.31.88,6.35,1.15,9.59.38,6.54.38,9.85A120,120,0,0,1,279.82,333a108.61,108.61,0,0,1-19.29,33.46A93.13,93.13,0,0,1,232,389.19,81.68,81.68,0,0,1,197,398.1l-24.6.62a81.69,81.69,0,0,0,35.06-9A93.48,93.48,0,0,0,236.18,366.85Z"/></g></g><path class="cls-26" d="M205.7,193.54a92.67,92.67,0,0,1,29.57,22.74,108.77,108.77,0,0,1,20,34,122.51,122.51,0,0,1,0,83.59,108.61,108.61,0,0,1-20,34,92.56,92.56,0,0,1-29.57,22.75,81.11,81.11,0,0,1-71.83-.57,93.08,93.08,0,0,1-29.1-23,109.19,109.19,0,0,1-19.53-33.79,122.48,122.48,0,0,1,0-82.47,109.24,109.24,0,0,1,19.53-33.8,93.22,93.22,0,0,1,29.1-23,81.15,81.15,0,0,1,71.83-.56Zm-36,199.87a77.21,77.21,0,0,0,34.21-7.71A88,88,0,0,0,232,364.09a103.5,103.5,0,0,0,19-32.3,116.52,116.52,0,0,0,0-79.39,103.67,103.67,0,0,0-19-32.31,88.1,88.1,0,0,0-28.07-21.61,77.09,77.09,0,0,0-68.25.51A88.34,88.34,0,0,0,108,220.8a103.65,103.65,0,0,0-18.58,32.11,116.46,116.46,0,0,0,0,78.37A103.72,103.72,0,0,0,108,363.38a88.38,88.38,0,0,0,27.64,21.82,77.57,77.57,0,0,0,34,8.21Z"/><path class="cls-27" d="M88.88,312.47c.47,3,1,5.86,1.73,8.72s1.49,5.67,2.38,8.42,1.86,5.39,2.94,8,2.26,5.15,3.51,7.63,2.62,4.89,4,7.22,3,4.6,4.57,6.79a94.37,94.37,0,0,0,13.27,14.67,85.63,85.63,0,0,0,15.74,11.22,79.08,79.08,0,0,0,10.76,4.92,79.45,79.45,0,0,1-12.18-4.85A88.38,88.38,0,0,1,108,363.38a103.72,103.72,0,0,1-18.58-32.1,116.46,116.46,0,0,1,0-78.37A103.65,103.65,0,0,1,108,220.8,88.34,88.34,0,0,1,135.65,199a77.58,77.58,0,0,1,34-8.22c.3,0,.59,0,.89,0-10.73,1.06-22.18,5.47-31.53,10.11-10.38,5.16-18.49,13.35-26.32,22.47a103.39,103.39,0,0,0-18.5,31.91,113.72,113.72,0,0,0-6.77,39q0,4.67.36,9.23T88.88,312.47Z"/><path class="cls-28" d="M286.35,292.64a46.14,46.14,0,0,0-11.87-1.37,37.84,37.84,0,0,0-10.62,1.4Z"/><path class="cls-29" d="M286.35,292.64a41.54,41.54,0,0,1-11.78,1.51,37.51,37.51,0,0,1-10.63-1.4Z"/><path class="cls-30" d="M285.36,306.72a46.05,46.05,0,0,0-11.87-1.37,37.38,37.38,0,0,0-10.62,1.4Z"/><path class="cls-29" d="M285.36,306.72a41.46,41.46,0,0,1-11.78,1.51,37.38,37.38,0,0,1-10.62-1.4Z"/><path class="cls-31" d="M281.37,321.38a43.33,43.33,0,0,0-11.19-1.29,35.16,35.16,0,0,0-10,1.32Z"/><path class="cls-29" d="M281.37,321.38a39.17,39.17,0,0,1-11.12,1.42,34.91,34.91,0,0,1-10-1.32Z"/><path class="cls-32" d="M277.4,335.46a43.21,43.21,0,0,0-11.18-1.29,35,35,0,0,0-10,1.32Z"/><path class="cls-29" d="M277.4,335.46a39.05,39.05,0,0,1-11.11,1.42,35.45,35.45,0,0,1-10-1.32Z"/><path class="cls-33" d="M272.82,349.11a46.79,46.79,0,0,0-12-1.39A38.23,38.23,0,0,0,250,349.14Z"/><path class="cls-29" d="M272.82,349.11a42.13,42.13,0,0,1-11.95,1.53,37.78,37.78,0,0,1-10.76-1.42Z"/><path class="cls-34" d="M261.8,363.9a44.85,44.85,0,0,0-11.55-1.33,36.63,36.63,0,0,0-10.35,1.36Z"/><path class="cls-29" d="M261.8,363.9a40.31,40.31,0,0,1-11.47,1.47A36.63,36.63,0,0,1,240,364Z"/><path class="cls-35" d="M249,376.54a41,41,0,0,0-10.51-1.21,33,33,0,0,0-9.4,1.24Z"/><path class="cls-29" d="M249,376.54a36.65,36.65,0,0,1-10.43,1.34,33.1,33.1,0,0,1-9.41-1.24Z"/><path class="cls-36" d="M234.78,386.87a42.41,42.41,0,0,0-10.85-1.25,34.63,34.63,0,0,0-9.72,1.28Z"/><path class="cls-29" d="M234.78,386.87A37.67,37.67,0,0,1,224,388.25a33.93,33.93,0,0,1-9.7-1.28Z"/><path class="cls-37" d="M215.83,394.11A36.29,36.29,0,0,0,206.5,393a29.68,29.68,0,0,0-8.34,1.1Z"/><path class="cls-29" d="M215.83,394.11a32.42,32.42,0,0,1-9.26,1.18,29.22,29.22,0,0,1-8.34-1.1Z"/><path class="cls-38" d="M198.75,396.72a23,23,0,0,0-5.91-.68,18.61,18.61,0,0,0-5.3.7Z"/><path class="cls-29" d="M198.75,396.72a20.32,20.32,0,0,1-5.87.75,18.7,18.7,0,0,1-5.3-.7Z"/><path class="cls-39" d="M285.24,278.69a45.62,45.62,0,0,0-11.87-1.37,37.66,37.66,0,0,0-10.62,1.39Z"/><path class="cls-29" d="M285.24,278.69a41.38,41.38,0,0,1-11.79,1.5,37.66,37.66,0,0,1-10.62-1.39Z"/><path class="cls-40" d="M283,265.1a46,46,0,0,0-11.86-1.37,37.38,37.38,0,0,0-10.62,1.4Z"/><path class="cls-29" d="M283,265.1a41.46,41.46,0,0,1-11.78,1.51,37.38,37.38,0,0,1-10.62-1.4Z"/><path class="cls-41" d="M280,254a45.37,45.37,0,0,0-11.7-1.35A36.83,36.83,0,0,0,257.81,254Z"/><path class="cls-29" d="M280,254a40.91,40.91,0,0,1-11.62,1.49,37.29,37.29,0,0,1-10.46-1.38Z"/><path class="cls-42" d="M275.61,242.16A44.82,44.82,0,0,0,264,240.83a37,37,0,0,0-10.39,1.36Z"/><path class="cls-29" d="M275.61,242.16a40.52,40.52,0,0,1-11.53,1.48,36.59,36.59,0,0,1-10.39-1.37Z"/><path class="cls-43" d="M268.35,229.56a45.21,45.21,0,0,0-11.68-1.35,37,37,0,0,0-10.47,1.38Z"/><path class="cls-29" d="M268.35,229.56a40.48,40.48,0,0,1-11.6,1.48,37,37,0,0,1-10.47-1.38Z"/><path class="cls-44" d="M258.71,218.35a40.58,40.58,0,0,0-10.51-1.22,33.56,33.56,0,0,0-9.41,1.24Z"/><path class="cls-29" d="M258.71,218.35a36.91,36.91,0,0,1-10.44,1.33,33.1,33.1,0,0,1-9.41-1.24Z"/><path class="cls-45" d="M248.5,207.89A41,41,0,0,0,238,206.68a33,33,0,0,0-9.4,1.24Z"/><path class="cls-29" d="M248.5,207.89a36.76,36.76,0,0,1-10.44,1.34,33,33,0,0,1-9.4-1.24Z"/><path class="cls-46" d="M237.22,199.08a40.87,40.87,0,0,0-10.51-1.21,33.1,33.1,0,0,0-9.41,1.24Z"/><path class="cls-29" d="M237.22,199.08a36.68,36.68,0,0,1-10.44,1.34,33.56,33.56,0,0,1-9.41-1.24Z"/><path class="cls-47" d="M225.57,193.24a38.18,38.18,0,0,0-9.84-1.13,31,31,0,0,0-8.8,1.15Z"/><path class="cls-29" d="M225.57,193.24a34.3,34.3,0,0,1-9.78,1.25,31,31,0,0,1-8.79-1.16Z"/><path class="cls-48" d="M212,188.88a34.76,34.76,0,0,0-9.05-1.06,28.61,28.61,0,0,0-8.11,1.08Z"/><path class="cls-29" d="M212,188.88a31.29,31.29,0,0,1-9,1.17,28.34,28.34,0,0,1-8.11-1.09Z"/></g></g><path class="cls-49" d="M156.2,309a29.1,29.1,0,0,0,29.26,29.14c7.06,0,17.17-3.57,25.78-12.45a5.89,5.89,0,0,1,4.21-1.87c3.56,0,6.45,3.45,6.45,7.71A8.6,8.6,0,0,1,220,337a31.21,31.21,0,0,1-3.07,3.12A44.58,44.58,0,0,1,187.63,352c-13.16,0-24.22-4.91-32-14.2a50.09,50.09,0,0,1-11.09-30.66c0-9.76,2.94-18.86,8.06-25,3.93-4.71,8.9-7.3,14-7.3a18.05,18.05,0,0,1,14,6.76,22,22,0,0,1,2.63,4,11.11,11.11,0,0,0-6.92-2.23C165.21,283.33,156.2,294.85,156.2,309Z"/><path class="cls-49" d="M166.61,272.14c-5.7,0-11.25,2.88-15.61,8.11-5.55,6.64-8.73,16.45-8.73,26.93,0,8.46,3,20.56,10.4,30.87a8.67,8.67,0,0,1,1.57,5c0,4.26-2.89,7.71-6.45,7.71a6,6,0,0,1-4.53-2.22,35,35,0,0,1-2.6-3.67c-9.22-14.33-9.93-30.52-9.93-35.14,0-15.75,4.1-29,11.86-38.28,8.18-9.79,18.59-13.27,25.61-13.27a27.05,27.05,0,0,1,20.87,9.64,26.81,26.81,0,0,1,.45,33.49,18.86,18.86,0,0,1-3.32,3.15,17.55,17.55,0,0,0,1.86-8.29C188.06,282.94,178.44,272.14,166.61,272.14Z"/><path class="cls-49" d="M197.4,284.62a29.1,29.1,0,0,0-29.26-29.14c-7.07,0-17.17,3.56-25.79,12.44a5.88,5.88,0,0,1-4.2,1.88c-3.56,0-6.45-3.46-6.45-7.72a8.6,8.6,0,0,1,1.86-5.42,31,31,0,0,1,3.06-3.11A44.55,44.55,0,0,1,166,241.65c13.16,0,24.22,4.92,32,14.21A50,50,0,0,1,209,286.52c0,9.75-2.93,18.86-8.05,25-3.93,4.71-8.9,7.31-14,7.31A18.06,18.06,0,0,1,173,312a21.92,21.92,0,0,1-2.64-4,11.22,11.22,0,0,0,6.93,2.22C188.38,310.29,197.4,298.77,197.4,284.62Z"/><path class="cls-49" d="M187,321.48c5.7,0,11.25-2.88,15.61-8.1,5.54-6.64,8.72-16.46,8.72-26.93,0-8.47-3-20.57-10.39-30.88a8.65,8.65,0,0,1-1.57-5c0-4.26,2.89-7.71,6.45-7.71a6,6,0,0,1,4.53,2.23,35.3,35.3,0,0,1,2.6,3.66c9.21,14.33,9.93,30.52,9.93,35.14,0,15.75-4.1,29-11.86,38.28-8.18,9.79-18.59,13.28-25.61,13.28a27.07,27.07,0,0,1-20.87-9.64,26.82,26.82,0,0,1-.45-33.5,19.63,19.63,0,0,1,3.32-3.15,17.58,17.58,0,0,0-1.86,8.29C165.54,310.68,175.16,321.48,187,321.48Z"/></g></g></svg>