<svg width="447" height="129" viewBox="0 0 447 129" fill="none" xmlns="http://www.w3.org/2000/svg">
<g clip-path="url(#clip0_576_2)">
<path d="M137.27 82.3242H140.028V85.2692H137.27V82.3242Z" fill="#C8FBFF"/>
<path d="M140.949 86.188H143.711V89.133H140.949V86.188Z" fill="#C8FBFF"/>
<path d="M147.301 86.188H150.063V89.133H147.301V86.188Z" fill="#C8FBFF"/>
<path d="M144.355 82.3242H147.117V85.2692H144.355V82.3242Z" fill="#C8FBFF"/>
<path d="M137.27 89.688H140.028V92.633H137.27V89.688Z" fill="#C8FBFF"/>
<path d="M140.949 93.5508H143.711V96.4958H140.949V93.5508Z" fill="#C8FBFF"/>
<path d="M145.09 104.598H147.852V107.539H145.09V104.598Z" fill="#C8FBFF"/>
<path d="M147.301 97.2339H150.063V100.179H147.301V97.2339Z" fill="#C8FBFF"/>
<path d="M149.23 91.6211H151.992V94.5621H149.23V91.6211Z" fill="#C8FBFF"/>
<path d="M137.27 97.2339H140.028V100.179H137.27V97.2339Z" fill="#C8FBFF"/>
<path d="M140.949 101.098H143.711V104.043H140.949V101.098Z" fill="#C8FBFF"/>
<path d="M187.68 82.5078H190.957V85.9058H187.68V82.5078Z" fill="#C8FBFF"/>
<path d="M194.258 87.1089H197.535V90.5069H194.258V87.1089Z" fill="#C8FBFF"/>
<path d="M189.145 96.4961H192.418V99.8941H189.145V96.4961Z" fill="#C8FBFF"/>
<path d="M199.363 100.363H202.64V103.761H199.363V100.363Z" fill="#C8FBFF"/>
<path d="M201 91.895H204.277V95.293H201V91.895Z" fill="#C8FBFF"/>
<path d="M48.1953 89.6128H50.1133V91.6288H48.1953V89.6128Z" fill="#C8FBFF"/>
<path d="M52.7891 92.895H54.7071V94.911H52.7891V92.895Z" fill="#C8FBFF"/>
<path d="M48.1953 100.496H50.1133V102.512H48.1953V100.496Z" fill="#C8FBFF"/>
<path d="M56.4727 103.629H58.3947V105.645H56.4727V103.629Z" fill="#C8FBFF"/>
<path d="M57.8008 96.77H59.7188V98.786H57.8008V96.77Z" fill="#C8FBFF"/>
<path d="M348.23 83.062H351.507V86.457H348.23V83.062Z" fill="#C8FBFF"/>
<path d="M353.348 87.1089H356.625V90.5069H353.348V87.1089Z" fill="#C8FBFF"/>
<path d="M348.23 96.4961H351.507V99.8941H348.23V96.4961Z" fill="#C8FBFF"/>
<path d="M358.453 100.363H361.73V103.761H358.453V100.363Z" fill="#C8FBFF"/>
<path d="M360.09 91.895H363.367V95.293H360.09V91.895Z" fill="#C8FBFF"/>
<path d="M110.457 54.4692H112.684V54.5742H110.457V54.4692Z" fill="#C8FBFF"/>
<path d="M398.383 89.6128H400.301V91.6288H398.383V89.6128Z" fill="#C8FBFF"/>
<path d="M403.453 92.895H405.371V94.911H403.453V92.895Z" fill="#C8FBFF"/>
<path d="M407.988 89.02H409.906V91.036H407.988V89.02Z" fill="#C8FBFF"/>
<path d="M398.383 100.496H400.301V102.512H398.383V100.496Z" fill="#C8FBFF"/>
<path d="M407.988 96.77H409.906V98.786H407.988V96.77Z" fill="#C8FBFF"/>
<path d="M406.66 103.629H408.578V105.645H406.66V103.629Z" fill="#C8FBFF"/>
<path d="M399.113 107.148H401.031V109.16H399.113V107.148Z" fill="#C8FBFF"/>
<path d="M303.582 87.5552H304.746V88.7622H303.582V87.5552Z" fill="#C8FBFF"/>
<path d="M308.336 92.5552H309.504V93.7622H308.336V92.5552Z" fill="#C8FBFF"/>
<path d="M303 96.6289H304.164V97.8359H303V96.6289Z" fill="#C8FBFF"/>
<path d="M308.062 99.5742H309.227V100.781H308.062V99.5742Z" fill="#C8FBFF"/>
<path d="M301.188 102.957H302.355V104.164H301.188V102.957Z" fill="#C8FBFF"/>
<path d="M301.188 92.2729H302.355V93.4799H301.188V92.2729Z" fill="#C8FBFF"/>
<path d="M308.918 86.9492H310.086V88.1562H308.918V86.9492Z" fill="#C8FBFF"/>
<path d="M299.84 83.3872H301.004V84.5942H299.84V83.3872Z" fill="#C8FBFF"/>
<path d="M77.7337 22.8359C77.3357 22.8359 77.0117 23.1599 77.0117 23.5589C77.0117 23.9609 77.3357 24.2809 77.7337 24.2809C78.1367 24.2809 78.4607 23.9609 78.4607 23.5589C78.4607 23.1599 78.1367 22.8359 77.7337 22.8359Z" fill="#C8FBFF"/>
<path d="M84.4837 22.8359C84.0857 22.8359 83.7617 23.1599 83.7617 23.5589C83.7617 23.9609 84.0857 24.2809 84.4837 24.2809C84.8827 24.2809 85.2107 23.9609 85.2107 23.5589C85.2107 23.1599 84.8827 22.8359 84.4837 22.8359Z" fill="#C8FBFF"/>
<path d="M90.1292 24.2809C90.5312 24.2809 90.8522 23.9609 90.8522 23.5589C90.8522 23.1599 90.5312 22.8359 90.1292 22.8359C89.7302 22.8359 89.4062 23.1599 89.4062 23.5589C89.4062 23.9609 89.7302 24.2809 90.1292 24.2809Z" fill="#C8FBFF"/>
<path d="M92.723 24.2809C93.121 24.2809 93.445 23.9609 93.445 23.5589C93.445 23.1599 93.121 22.8359 92.723 22.8359C92.324 22.8359 92 23.1599 92 23.5589C92 23.9609 92.324 24.2809 92.723 24.2809Z" fill="#C8FBFF"/>
<path d="M20.0547 100.629H44.0897V112.688H20.0547V100.629Z" fill="#C8FBFF"/>
<path d="M31.1758 91.3911H46.9138V98.3171H31.1758V91.3911Z" fill="#C8FBFF"/>
<path d="M109.098 57.2622H128.688V106.016H109.098V57.2622Z" fill="#C8FBFF"/>
<path d="M160.594 51.7852H184.199V112.687H160.594V51.7852Z" fill="#C8FBFF"/>
<path d="M210.805 28.4341H239.715V106.274H210.805V28.4341Z" fill="#C8FBFF"/>
<path d="M249.379 54.5229H286.246V112.089H249.379V54.5229Z" fill="#C8FBFF"/>
<path d="M311.137 57.688H335.004V102.938H311.137V57.688Z" fill="#C8FBFF"/>
<path d="M369.391 100.543H393.512V113.031H369.391V100.543Z" fill="#C8FBFF"/>
<path d="M380.863 92.6909H393.511V100.543H380.863V92.6909Z" fill="#C8FBFF"/>
<path d="M411.645 100.027H435.083V112.515H411.645V100.027Z" fill="#C8FBFF"/>
<path d="M300.195 77.6948H310.05V81.3828H300.195V77.6948Z" fill="#C8FBFF"/>
<path d="M336.25 109.996H341.941V109.195H336.25V109.996ZM301.188 103.145V104.164H302.355V102.957H301.188V103.145ZM301.188 92.434V93.48H302.355V92.273H301.188V92.434ZM299.84 84.305V84.594H301.004V83.387H299.84V84.305ZM301.129 80.238H309.316V78.461H301.129V80.238ZM312.828 97.996H316.648V94.039H312.828V97.996ZM312.828 75.125H316.648V71.164H312.828V75.125ZM312.828 63.688H316.648V59.727H312.828V63.688ZM312.828 69.406H316.648V65.445H312.828V69.406ZM312.828 80.844H316.648V76.883H312.828V80.844ZM312.828 92.277H316.648V88.32H312.828V92.277ZM312.828 86.562H316.648V82.602H312.828V86.562ZM318.328 63.688H322.145V59.727H318.328V63.688ZM318.328 69.406H322.145V65.445H318.328V69.406ZM318.328 75.125H322.145V71.164H318.328V75.125ZM318.328 80.844H322.145V76.883H318.328V80.844ZM318.328 86.562H322.145V82.602H318.328V86.562ZM318.328 97.996H322.148V94.039H318.328V97.996ZM318.328 92.277H322.145V88.32H318.328V92.277ZM329.328 63.688H333.145V59.727H329.328V63.688ZM329.328 97.996H333.145V94.039H329.328V97.996ZM329.328 92.277H333.145V88.32H329.328V92.277ZM329.328 86.562H333.145V82.602H329.328V86.562ZM329.328 80.844H333.145V76.883H329.328V80.844ZM329.328 69.406H333.145V65.445H329.328V69.406ZM329.328 75.125H333.145V71.164H329.328V75.125ZM323.828 97.996H327.645V94.039H323.828V97.996ZM323.828 92.277H327.645V88.32H323.828V92.277ZM323.828 86.562H327.645V82.602H323.828V86.562ZM323.828 80.844H327.645V76.883H323.828V80.844ZM323.828 75.125H327.645V71.164H323.828V75.125ZM323.828 63.688H327.645V59.727H323.828V63.688ZM323.828 69.406H327.645V65.445H323.828V69.406ZM309.727 88.156H310.086V86.949H308.918V88.156H309.727ZM308.336 93.762H309.504V92.555H308.336V93.762ZM308.062 100.781H309.227V99.574H308.062V100.781ZM303 97.836H304.164V96.629H303V97.836ZM303.582 88.762H304.746V87.555H303.582V88.762ZM360.09 95.293H363.367V91.895H360.09V95.293ZM372.273 103.676H392.336V103.125H372.273V103.676ZM382.336 97.234H392.922V96.25H382.336V97.234ZM382.336 93.676H392.922V92.691H382.336V93.676ZM413.246 103.676H433.285V103.125H413.246V103.676ZM413.246 109.996H433.281V109.441H413.246V109.996ZM407.988 91.035H409.906V89.02H407.988V91.035ZM407.988 98.785H409.906V96.77H407.988V98.785ZM406.66 105.645H408.578V103.629H406.66V105.645ZM403.453 94.91H405.371V92.895H403.453V94.91ZM398.383 91.629H400.301V89.613H398.383V91.629ZM399.113 109.16H401.031V107.148H399.113V109.16ZM398.383 102.512H400.301V100.496H398.383V102.512ZM413.246 106.867H433.281V106.254H413.246V106.867ZM372.273 109.996H392.336V109.258H375.609V107.051H392.336V106.254H372.273V109.996ZM348.23 99.895H351.508V96.496H348.23V99.895ZM348.23 86.457H351.508V83.062H348.23V86.457ZM353.348 90.508H356.625V87.109H353.348V90.508ZM358.453 103.762H361.73V100.363H358.453V103.762ZM207.945 109.996H209.789V109.336H207.945V109.996ZM104.504 103.348V109.996H107.879V71.281C105.934 70.312 103.922 69.43 101.848 68.641V69.707H91.125C91.164 70.207 91.195 70.703 91.227 71.199H102.379V77.906H91.473C91.473 78.352 91.473 78.797 91.465 79.238H102.91V86.109H91.156C91.137 86.352 91.125 86.602 91.105 86.844C91.094 86.988 91.078 87.129 91.066 87.273H103.441V94.309H90.34C90.297 94.645 90.258 94.984 90.211 95.312H103.973V102.512H89.066C89.016 102.797 88.961 103.074 88.906 103.348H104.504ZM63.062 85.699V109.996H67.141V103.348H82.922C82.871 103.074 82.816 102.797 82.762 102.512H67.672V95.312H81.617C81.57 94.984 81.531 94.645 81.492 94.309H68.203V87.273H80.762C80.75 87.129 80.738 86.988 80.727 86.844C80.707 86.602 80.691 86.352 80.672 86.109H68.734V79.238H80.363C80.359 78.797 80.355 78.352 80.355 77.906H69.266V71.199H80.602C80.633 70.703 80.664 70.207 80.703 69.707H69.797V64.52C47.066 66.801 28.121 79.723 20.094 97.234H30.676V96.25H29.82V93.676H30.676V92.691H29.82V90.117H42.734V85.699H46.645V82.273H58.762V85.699H63.062ZM22.09 103.676H42.148V103.125H22.09V103.676ZM56.473 105.645H58.395V103.629H56.473V105.645ZM57.801 98.785H59.719V96.77H57.801V98.785ZM52.789 94.91H54.707V92.895H52.789V94.91ZM48.195 102.512H50.113V100.496H48.195V102.512ZM48.195 91.629H50.113V89.613H48.195V91.629ZM22.09 109.996H42.148V109.441H22.09V109.996ZM22.09 106.867H42.148V106.254H22.09V106.867ZM32.148 93.676H42.734V92.691H32.148V93.676ZM32.148 97.234H42.734V96.25H32.148V97.234ZM120.609 77.812C121.121 78.238 121.625 78.668 122.121 79.105H124.23V76.25H120.609V77.812ZM124.566 60.91H128.188V57.871H124.566V60.91ZM129.477 81.078V87.012C131.352 89.473 132.996 92.074 134.383 94.789H134.969V81.078H129.477ZM137.27 100.18H140.027V97.234H137.27V100.18ZM137.27 92.633H140.027V89.688H137.27V92.633ZM137.27 85.27H140.027V82.324H137.27V85.27ZM149.23 94.562H151.992V91.621H149.23V94.562ZM154.109 98.789H159.664V90.055H154.109V98.789ZM162.422 55.695H166.043V52.426H162.422V55.695ZM166.625 55.695H170.246V52.426H166.625V55.695ZM170.828 55.695H174.449V52.426H170.828V55.695ZM175.031 55.695H178.652V52.426H175.031V55.695ZM179.234 55.695H182.855V52.426H179.234V55.695ZM162.422 92.961H166.043V89.961H162.422V92.961ZM162.422 88.492H166.043V85.352H162.422V88.492ZM162.422 84.727H166.043V77.121H162.422V84.727ZM162.422 60.035H166.043V57.168H162.422V60.035ZM166.625 60.035H170.246V57.168H166.625V60.035ZM170.828 60.035H174.449V57.168H170.828V60.035ZM175.031 60.035H178.652V57.168H175.031V60.035ZM179.234 60.035H182.855V57.168H179.234V60.035ZM179.234 109.426H182.855V106.297H179.234V109.426ZM175.031 109.426H178.652V106.297H175.031V109.426ZM170.828 109.426H174.449V106.297H170.828V109.426ZM166.625 109.426H170.246V106.297H166.625V109.426ZM162.422 109.426H166.043V106.297H162.422V109.426ZM162.422 104.82H166.043V101.816H162.422V104.82ZM162.422 101.191H166.043V93.582H162.422V101.191ZM166.625 92.961H170.246V89.961H166.625V92.961ZM166.625 88.492H170.246V85.352H166.625V88.492ZM166.625 84.727H170.246V77.121H166.625V84.727ZM166.625 76.496H170.246V68.891H166.625V76.496ZM166.625 68.266H170.246V60.656H166.625V68.266ZM170.828 88.492H174.449V85.352H170.828V88.492ZM170.828 76.496H174.449V68.891H170.828V76.496ZM170.828 68.266H174.449V60.656H170.828V68.266ZM175.031 88.492H178.652V85.352H175.031V88.492ZM175.031 84.727H178.652V77.121H175.031V84.727ZM175.031 76.496H178.652V68.891H175.031V76.496ZM175.031 68.266H178.652V60.656H175.031V68.266ZM179.234 92.961H182.855V89.961H179.234V92.961ZM179.234 101.191H182.855V93.582H179.234V101.191ZM179.234 104.82H182.855V101.816H179.234V104.82ZM175.031 104.82H178.652V101.816H175.031V104.82ZM170.828 104.82H174.449V101.816H170.828V104.82ZM166.625 101.191H170.246V93.582H166.625V101.191ZM166.625 104.82H170.246V101.816H166.625V104.82ZM170.828 92.961H174.449V89.961H170.828V92.961ZM175.031 101.191H178.652V93.582H175.031V101.191ZM175.031 92.961H178.652V89.961H175.031V92.961ZM179.234 88.492H182.855V85.352H179.234V88.492ZM179.234 84.727H182.855V77.121H179.234V84.727ZM179.234 76.496H182.855V68.891H179.234V76.496ZM162.422 68.266H166.043V60.656H162.422V68.266ZM154.109 109.996H159.57V101H154.109V109.996ZM140.949 104.043H143.711V101.098H140.949V104.043ZM140.949 96.496H143.711V93.551H140.949V96.496ZM140.949 89.133H143.711V86.188H140.949V89.133ZM147.301 89.133H150.062V86.188H147.301V89.133ZM147.301 100.18H150.062V97.234H147.301V100.18ZM144.355 85.27H147.117V82.324H144.355V85.27ZM145.09 107.539H147.852V104.598H145.09V107.539ZM111.5 89.453H115.117V86.496H111.5V89.453ZM111.07 104.637H114.688V102.062H111.07V104.637ZM111.07 100.219H114.688V97.031H111.07V100.219ZM111.5 84.656H115.117V81.844H111.5V84.656ZM120.609 74.41H124.23V71.5H120.609V74.41ZM124.566 65.48H128.188V62.754H124.566V65.48ZM132.73 94.789C131.762 92.969 130.676 91.203 129.477 89.496V94.789H132.73ZM133.473 96.262H130.211V103.957H134.969V99.668C134.516 98.516 134.016 97.379 133.473 96.262ZM122.422 99.148H126.039V96.445H122.422V99.148ZM122.422 94.605H126.039V91.539H122.422V94.605ZM130.211 107.125H134.969V106.168H130.211V107.125ZM130.211 109.996H134.969V109.336H130.211V109.996ZM187.68 85.906H190.957V82.508H187.68V85.906ZM201 95.293H204.277V91.895H201V95.293ZM189.145 99.895H192.418V96.496H189.145V99.895ZM194.258 90.508H197.535V87.109H194.258V90.508ZM199.363 103.762H202.641V100.363H199.363V103.762ZM207.945 107.125H209.789V106.168H207.945V107.125ZM212.242 103.77H217.211V98.613H212.242V103.77ZM212.242 96.324H217.211V91.172H212.242V96.324ZM212.242 88.883H217.211V83.727H212.242V88.883ZM212.242 73.996H217.211V68.844H212.242V73.996ZM212.242 59.109H217.211V53.957H212.242V59.109ZM212.242 51.664H217.211V46.512H212.242V51.664ZM212.242 36.781H217.211V31.625H212.242V36.781ZM219.402 96.324H224.371V91.172H219.402V96.324ZM219.402 81.441H224.371V76.285H219.402V81.441ZM219.402 66.555H224.371V61.398H219.402V66.555ZM219.402 51.664H224.371V46.512H219.402V51.664ZM219.402 44.223H224.371V39.07H219.402V44.223ZM219.402 36.781H224.371V31.625H219.402V36.781ZM226.559 103.77H231.527V98.613H226.559V103.77ZM226.559 96.324H231.527V91.172H226.559V96.324ZM226.559 88.883H231.527V83.727H226.559V88.883ZM226.559 81.441H231.527V76.285H226.559V81.441ZM226.559 73.996H231.527V68.844H226.559V73.996ZM226.559 66.555H231.527V61.398H226.559V66.555ZM226.559 59.109H231.527V53.957H226.559V59.109ZM226.559 51.664H231.527V46.512H226.559V51.664ZM233.719 103.77H238.688V98.613H233.719V103.77ZM233.719 88.883H238.688V83.727H233.719V88.883ZM233.719 81.441H238.688V76.285H233.719V81.441ZM233.719 66.555H238.688V61.398H233.719V66.555ZM233.719 59.109H238.688V53.957H233.719V59.109ZM233.719 44.223H238.688V39.07H233.719V44.223ZM233.719 36.781H238.688V31.625H233.719V36.781ZM241.891 93.066H247.473V86.23H241.891V93.066ZM250.699 101.652H257.25V98.008H250.699V101.652ZM250.699 64.801H257.25V61.156H250.699V64.801ZM250.699 59.535H257.25V55.891H250.699V59.535ZM250.699 75.328H257.25V71.684H250.699V75.328ZM260.137 106.918H266.688V103.273H260.137V106.918ZM260.137 101.652H266.688V98.008H260.137V101.652ZM260.137 91.125H266.688V87.477H260.137V91.125ZM260.137 80.594H266.688V76.949H260.137V80.594ZM260.137 75.328H266.688V71.684H260.137V75.328ZM260.137 64.801H266.688V61.156H260.137V64.801ZM269.574 106.918H276.129V103.273H269.574V106.918ZM269.574 96.387H276.129V92.742H269.574V96.387ZM269.574 85.859H276.129V82.215H269.574V85.859ZM269.574 80.594H276.129V76.949H269.574V80.594ZM269.574 75.328H276.129V71.684H269.574V75.328ZM269.574 64.801H276.129V61.156H269.574V64.801ZM269.574 59.535H276.129V55.891H269.574V59.535ZM279.012 106.918H285.566V103.273H279.012V106.918ZM279.012 96.387H285.566V92.742H279.012V96.387ZM279.012 85.859H285.566V82.215H279.012V85.859ZM279.012 80.594H285.566V76.949H279.012V80.594ZM279.012 70.062H285.566V66.418H279.012V70.062ZM279.012 59.535H285.566V55.891H279.012V59.535ZM250.699 80.594H257.25V76.949H250.699V80.594ZM250.699 91.125H257.25V87.477H250.699V91.125ZM241.891 109.996H247.473V96.012H241.891V109.996ZM83.762 23.559C83.762 23.961 84.086 24.281 84.484 24.281C84.883 24.281 85.211 23.961 85.211 23.559C85.211 23.16 84.883 22.836 84.484 22.836C84.086 22.836 83.762 23.16 83.762 23.559ZM78.461 23.559C78.461 23.16 78.137 22.836 77.734 22.836C77.336 22.836 77.012 23.16 77.012 23.559C77.012 23.961 77.336 24.281 77.734 24.281C78.137 24.281 78.461 23.961 78.461 23.559ZM89.406 23.559C89.406 23.961 89.73 24.281 90.129 24.281C90.531 24.281 90.852 23.961 90.852 23.559C90.852 23.16 90.531 22.836 90.129 22.836C89.73 22.836 89.406 23.16 89.406 23.559ZM92 23.559C92 23.961 92.324 24.281 92.723 24.281C93.121 24.281 93.445 23.961 93.445 23.559C93.445 23.16 93.121 22.836 92.723 22.836C92.324 22.836 92 23.16 92 23.559ZM446.293 109.996V128.406H0V109.996H8.957V97.234H10.43V109.996H14.887C15.172 107.82 15.613 105.68 16.195 103.586V97.234H18.48C27.395 77.07 50.27 62.688 77.012 62.688C78.438 62.688 79.848 62.73 81.246 62.809C81.277 62.375 81.309 61.941 81.34 61.508H70.332V55.125H81.715C81.742 54.516 81.773 53.91 81.801 53.305H70.863V47.09H82.117C82.137 46.723 82.152 46.352 82.172 45.988C82.188 45.691 82.203 45.398 82.219 45.105H71.395V39.051H82.566C82.609 38.328 82.652 37.613 82.695 36.902H71.926V31.012H83.074C83.129 30.168 83.184 29.336 83.238 28.512C76.113 28.094 70.699 26.035 70.699 23.559C70.699 21.004 76.461 18.895 83.918 18.574C83.941 18.273 83.961 17.961 83.984 17.668C84.164 15.016 84.363 12.586 84.523 10.434C84.688 8.281 84.836 6.402 84.965 4.859C85.23 1.766 85.383 0 85.383 0H86.449C86.449 0 86.598 1.766 86.863 4.859C86.996 6.402 87.145 8.281 87.305 10.434C87.465 12.586 87.664 15.016 87.848 17.668C87.867 17.961 87.891 18.273 87.91 18.574C95.371 18.895 101.129 21.004 101.129 23.559C101.129 26.035 95.719 28.094 88.594 28.512C88.645 29.336 88.699 30.168 88.754 31.012H99.719V36.902H89.137C89.18 37.613 89.223 38.328 89.266 39.051H100.25V45.105H89.609C89.625 45.398 89.641 45.691 89.656 45.988C89.676 46.352 89.691 46.723 89.715 47.09H100.781V53.305H90.027C90.059 53.91 90.086 54.516 90.117 55.125H101.312V61.508H90.488C90.527 62.059 90.57 62.613 90.613 63.164H101.848V67.074C103.918 67.84 105.93 68.695 107.879 69.645V56.309H112.684V54.469H107.879V52.066H110.457V49.004H113.277V41.688H116.16V32.398H121.684V41.688H124.566V49.004H127.023V52.066H129.477V80.344H134.969V77.723H138.648V73.488H150.062V77.723H154.109V89.32H159.664V50.156H162.879V51.258H182.898V50.156H185.676V78.684H187.68V74.453H202.641V78.684H207.945V103.957H209.789V25.309H211.508V19.539H213.223V16.84H223.777V19.539H227.215V16.84H237.766V19.539H238.75V25.309H240.711V83.285H247.707V52.656H249.973V48.578H252.238V46.668H265.18V48.578H270.68V46.668H283.625V48.578H284.918V52.656H287.508V97.234H288.98V109.996H289.961V97.234H291.434V109.996H296.711V109.289H295.484V106.715H296.711V105.719H294.566V103.145H296.711V102.152H293.652V99.574H296.711V98.582H292.734V96.004H296.711V95.012H291.82V92.434H296.711V91.441H290.902V88.867H296.711V87.871H289.988V85.297H296.711V84.305H289.07V81.727H296.711V80.711H298.551V75.883H309.727V54.02H312.68V50.277H315.5V48.07H331.086V50.277H333.418V54.02H336.25V83.387H339.902V106.254H341.941V105.332H346.023V103.859H341.941V102.035H346.023V100.562H341.941V98.742H346.023V97.27H341.941V95.445H346.023V93.973H341.941V92.148H346.023V90.676H341.941V88.855H346.023V87.383H341.941V85.559H346.023V84.086H341.941V82.262H346.023V80.789H341.941V78.684H346.77V74.453H361.73V78.684H367.035V97.234H380.863V96.25H380.004V93.676H380.863V92.691H380.004V90.117H392.922V85.699H396.828V82.273H408.945V85.699H413.246V97.234H439.172V109.996H446.293ZM166.289 47.855H179.785V45.062H166.289V47.855ZM181.934 50.156H163.805V47.855H166.289V48.562H179.785V47.855H181.934V50.156Z" fill="#9EE7ED"/>
</g>
<defs>
<clipPath id="clip0_576_2">
<rect width="446.292" height="128.404" fill="white"/>
</clipPath>
</defs>
</svg>
